<svg width="40" height="40" viewBox="0 0 40 40" fill="none" xmlns="http://www.w3.org/2000/svg">
<g clip-path="url(#clip0_191_2996)">
<mask id="mask0_191_2996" style="mask-type:luminance" maskUnits="userSpaceOnUse" x="0" y="3" width="40" height="34">
<path fill-rule="evenodd" clip-rule="evenodd" d="M39.4629 17.4534C40.1226 17.0489 40.1226 16.0845 39.4629 15.6801L20.5361 4.07834C20.207 3.87656 19.7935 3.87656 19.4643 4.07834L0.537508 15.6801C-0.122204 16.0845 -0.122203 17.0489 0.537508 17.4534L8.27354 22.1954C8.21318 22.6785 8.18204 23.1708 8.18204 23.6705C8.18204 29.9979 15.9093 31.2146 19.7729 31.2146C19.9974 31.2146 20.2386 31.21 20.4935 31.1997C20.8237 34.0432 23.2242 36.2498 26.1366 36.2498C29.2745 36.2498 31.8184 33.6881 31.8184 30.528V22.1393L39.4629 17.4534Z" fill="white"/>
</mask>
<g mask="url(#mask0_191_2996)">
<path d="M8.27369 22.1954L9.17569 22.3098L9.24924 21.7216L8.74638 21.4134L8.27369 22.1954ZM20.4937 31.1997L21.3966 31.0934L21.2988 30.251L20.4573 30.2849L20.4937 31.1997ZM31.8186 22.1393L31.3459 21.3573L30.9095 21.6248V22.1393H31.8186ZM38.9904 16.4621C39.0682 16.5098 39.0682 16.6236 38.9904 16.6713L39.9357 18.2354C41.1773 17.4743 41.1773 15.6592 39.9357 14.8981L38.9904 16.4621ZM20.0636 4.86034L38.9904 16.4621L39.9357 14.8981L21.009 3.29632L20.0636 4.86034ZM19.9372 4.86034C19.976 4.83654 20.0247 4.83654 20.0636 4.86034L21.009 3.29632C20.3894 2.91657 19.6113 2.91657 18.9918 3.29632L19.9372 4.86034ZM1.01034 16.4621L19.9372 4.86034L18.9918 3.29632L0.0649847 14.8981L1.01034 16.4621ZM1.01035 16.6713C0.932513 16.6236 0.932509 16.5098 1.01034 16.4621L0.0649847 14.8981C-1.17661 15.6592 -1.17661 17.4743 0.0649855 18.2354L1.01035 16.6713ZM8.74638 21.4134L1.01035 16.6713L0.0649855 18.2354L7.80106 22.9774L8.74638 21.4134ZM9.09129 23.6705C9.09129 23.2092 9.12001 22.7551 9.17569 22.3098L7.37174 22.081C7.3066 22.602 7.2731 23.1325 7.2731 23.6705H9.09129ZM19.7731 30.2991C17.9064 30.2991 15.1528 30.0013 12.9021 28.9806C10.6822 27.9738 9.09129 26.3486 9.09129 23.6705H7.2731C7.2731 27.3197 9.54579 29.4665 12.1555 30.65C14.7343 31.8196 17.7761 32.1301 19.7731 32.1301V30.2991ZM20.4573 30.2849C20.2141 30.2947 19.9852 30.2991 19.7731 30.2991V32.1301C20.01 32.1301 20.2633 32.1252 20.53 32.1144L20.4573 30.2849ZM26.1367 35.3344C23.691 35.3344 21.6738 33.481 21.3966 31.0934L19.5907 31.306C19.9738 34.6055 22.7578 37.1653 26.1367 37.1653V35.3344ZM30.9095 30.528C30.9095 33.1825 28.7727 35.3344 26.1367 35.3344V37.1653C29.7768 37.1653 32.7276 34.1937 32.7276 30.528H30.9095ZM30.9095 22.1393V30.528H32.7276V22.1393H30.9095ZM38.9904 16.6713L31.3459 21.3573L32.2912 22.9213L39.9357 18.2354L38.9904 16.6713Z" fill="#146EF5"/>
</g>
<path fill-rule="evenodd" clip-rule="evenodd" d="M20.3034 8.13182C20.0742 7.99543 19.7887 7.99543 19.5596 8.13182L6.95233 15.6349C6.73203 15.766 6.59705 16.0034 6.59705 16.2598C6.59705 16.5161 6.73203 16.7536 6.95233 16.8847L13.2277 20.6194C13.0208 21.2719 12.9093 21.9663 12.9093 22.6857C12.9093 24.73 14.2065 25.9247 15.6399 26.5679C17.0492 27.2002 18.6982 27.3646 19.7728 27.3646C20.7869 27.3646 22.433 27.1993 23.8548 26.5692C24.4247 26.3166 24.9795 25.9774 25.4416 25.5321V25.7512C24.7536 26.2638 24.3378 27.0788 24.3378 27.9552V30.103C24.3378 31.1137 25.1528 31.9418 26.1688 31.9418C27.1849 31.9418 27.9999 31.1137 27.9999 30.103V27.9552C27.9999 27.0788 27.5841 26.2638 26.896 25.7512V22.1166C26.896 21.6048 26.7851 21.1065 26.5786 20.6531L32.9106 16.8847C33.1309 16.7536 33.2659 16.5161 33.2659 16.2598C33.2659 16.0034 33.1309 15.766 32.9106 15.6349L20.3034 8.13182ZM25.7097 19.4778L31.1168 16.2598L19.9315 9.60293L8.74612 16.2598L19.9315 22.9166L24.3681 20.2762L19.6495 16.7548C19.6227 16.7456 19.5963 16.7346 19.5707 16.7217C19.1145 16.492 19.1145 15.8363 19.5707 15.6066C19.7449 15.5188 19.95 15.5188 20.1243 15.6066C20.1873 15.6383 20.2417 15.6782 20.2873 15.724L20.4349 15.5262L25.4836 19.294L25.4837 19.294C25.5619 19.3523 25.6373 19.4137 25.7097 19.4778ZM25.063 21.555L20.3034 24.3877C20.0742 24.5241 19.7887 24.5241 19.5596 24.3877L14.5209 21.389C14.4182 21.804 14.3637 22.2382 14.3637 22.6857C14.3637 23.9557 15.1119 24.7369 16.2353 25.241C17.3828 25.7559 18.802 25.9102 19.7728 25.9102C20.6764 25.9102 22.0985 25.7568 23.2655 25.2396C24.4148 24.7302 25.182 23.9452 25.182 22.6857C25.182 22.2974 25.141 21.9193 25.063 21.555ZM25.7921 27.9552C25.7921 27.6051 25.9322 27.278 26.1688 27.0404C26.4055 27.278 26.5456 27.6051 26.5456 27.9552V30.103C26.5456 30.3201 26.3721 30.4875 26.1688 30.4875C25.9656 30.4875 25.7921 30.3202 25.7921 30.103V27.9552Z" fill="white"/>
</g>
<defs>
<clipPath id="clip0_191_2996">
<rect width="40" height="32.5" fill="white" transform="translate(0 3.75)"/>
</clipPath>
</defs>
</svg>
