<svg width="40" height="40" viewBox="0 0 40 40" fill="none" xmlns="http://www.w3.org/2000/svg">
<g clip-path="url(#clip0_191_3010)">
<path d="M20 33.125C27.2487 33.125 33.125 27.2487 33.125 20C33.125 12.7513 27.2487 6.875 20 6.875C12.7513 6.875 6.875 12.7513 6.875 20C6.875 27.2487 12.7513 33.125 20 33.125Z" stroke="white" stroke-width="1.2"/>
<path d="M26.25 20C26.25 23.7209 25.4946 27.0588 24.3023 29.4432C23.0914 31.865 21.5342 33.125 20 33.125C18.4658 33.125 16.9086 31.865 15.6977 29.4432C14.5054 27.0588 13.75 23.7209 13.75 20C13.75 16.2791 14.5054 12.9412 15.6977 10.5568C16.9086 8.135 18.4658 6.875 20 6.875C21.5342 6.875 23.0914 8.135 24.3023 10.5568C25.4946 12.9412 26.25 16.2791 26.25 20Z" stroke="white" stroke-width="1.2"/>
<path d="M20 26.25C16.2791 26.25 12.9412 25.4946 10.5568 24.3023C8.135 23.0914 6.875 21.5342 6.875 20C6.875 18.4658 8.135 16.9086 10.5568 15.6977C12.9412 14.5054 16.2791 13.75 20 13.75C23.7209 13.75 27.0588 14.5054 29.4432 15.6977C31.865 16.9086 33.125 18.4658 33.125 20C33.125 21.5342 31.865 23.0914 29.4432 24.3023C27.0588 25.4946 23.7209 26.25 20 26.25Z" stroke="white" stroke-width="1.2"/>
<path d="M20 38.125C30.0102 38.125 38.125 30.0102 38.125 20C38.125 9.98984 30.0102 1.875 20 1.875C9.98984 1.875 1.875 9.98984 1.875 20C1.875 30.0102 9.98984 38.125 20 38.125Z" stroke="#146EF5" stroke-width="2"/>
</g>
<defs>
<clipPath id="clip0_191_3010">
<rect width="40" height="40" fill="white"/>
</clipPath>
</defs>
</svg>
