<svg width="40" height="40" viewBox="0 0 40 40" fill="none" xmlns="http://www.w3.org/2000/svg">
<g clip-path="url(#clip0_191_3018)">
<path fill-rule="evenodd" clip-rule="evenodd" d="M18.6317 3.12109C19.4907 3.54481 20.5108 3.54495 21.3699 3.12143C21.6441 2.98632 21.9235 2.861 22.2079 2.74581C23.7157 2.13509 25.3313 1.8208 26.9626 1.8208C28.5936 1.8208 30.2092 2.13493 31.717 2.74573M21.3699 3.12143C20.5108 3.54495 19.4907 3.54481 18.6317 3.12109C16.9111 2.27243 14.9968 1.81894 13.0358 1.81894C9.74234 1.81894 6.58047 3.09826 4.24676 5.38031C1.91268 7.66288 0.598389 10.7621 0.598389 13.9969C0.598389 17.2316 1.91253 20.3308 4.24672 22.6133L4.26664 22.6329L18.3524 36.0656C19.275 36.9454 20.726 36.9453 21.6485 36.0655L35.7308 22.6337L35.7496 22.6154C36.9065 21.4855 37.8249 20.1429 38.4518 18.664C39.0786 17.1854 39.4016 15.5999 39.4016 13.9978C39.4016 12.3959 39.0786 10.8102 38.4518 9.3316C37.8253 7.85362 36.9076 6.51185 35.7518 5.38248C34.5963 4.2523 33.225 3.35653 31.717 2.74573" stroke="#146EF5" stroke-width="1.91031" stroke-linecap="round" stroke-linejoin="round"/>
<path d="M28.9102 7.15576C29.7986 7.52505 30.6059 8.0662 31.2858 8.74848C31.9661 9.43035 32.5059 10.2401 32.8741 11.1314C33.2423 12.0226 33.4319 12.978 33.4319 13.9429C33.4319 14.9077 33.2423 15.863 32.8741 16.7543C32.5059 17.6456 31.9661 18.4554 31.2858 19.1372L19.7018 30.4736L8.11588 19.1372C6.74266 17.7594 5.97119 15.8905 5.97119 13.9419C5.97119 11.9933 6.74266 10.1246 8.11588 8.74669C9.48915 7.36882 11.3518 6.59473 13.2937 6.59473C15.2358 6.59473 17.0984 7.36882 18.4716 8.74669L19.7291 10.0033L20.9301 8.74848C21.6101 8.0662 22.4173 7.52505 23.3057 7.15576C24.1941 6.78653 25.1463 6.59646 26.1079 6.59646C27.0695 6.59646 28.0218 6.78653 28.9102 7.15576Z" stroke="white" stroke-width="1.91031" stroke-linecap="round" stroke-linejoin="round"/>
</g>
<defs>
<clipPath id="clip0_191_3018">
<rect width="39.9972" height="38.2062" fill="white" transform="translate(0.00146484 0.625)"/>
</clipPath>
</defs>
</svg>
