<svg width="40" height="40" viewBox="0 0 40 40" fill="none" xmlns="http://www.w3.org/2000/svg">
<path d="M10.9218 28.0147L11.4233 28.1743L11.6525 27.4539L10.8973 27.489L10.9218 28.0147ZM29.325 28.0291L29.3495 27.5034L28.5775 27.4675L28.8269 28.199L29.325 28.0291ZM22.7113 1.81163C23.4531 1.3361 24.4431 1.60137 24.8477 2.38407L25.7828 1.90069C25.0934 0.567266 23.4069 0.115344 22.1432 0.925466L22.7113 1.81163ZM21.344 2.68822L22.7113 1.81163L22.1432 0.925466L20.7759 1.80206L21.344 2.68822ZM18.5929 2.68822C19.4312 3.22563 20.5057 3.22563 21.344 2.68822L20.7759 1.80206C20.2838 2.11751 19.6531 2.11751 19.161 1.80206L18.5929 2.68822ZM17.2255 1.81163L18.5929 2.68822L19.161 1.80206L17.7937 0.925466L17.2255 1.81163ZM15.0892 2.38407C15.4938 1.60137 16.4838 1.3361 17.2255 1.81163L17.7937 0.925466C16.53 0.115343 14.8434 0.567271 14.1541 1.90069L15.0892 2.38407ZM14.3433 3.8269L15.0892 2.38407L14.1541 1.90069L13.4082 3.34351L14.3433 3.8269ZM11.9608 5.20242C12.9555 5.2487 13.886 4.71145 14.3433 3.8269L13.4082 3.34351C13.1398 3.86273 12.5936 4.17809 12.0097 4.15093L11.9608 5.20242ZM10.3383 5.12695L11.9608 5.20242L12.0097 4.15093L10.3873 4.07546L10.3383 5.12695ZM8.77439 6.69092C8.73344 5.81076 9.45823 5.086 10.3383 5.12695L10.3873 4.07546C8.88786 4.0057 7.65316 5.24039 7.72291 6.73981L8.77439 6.69092ZM8.84986 8.31334L8.77439 6.69092L7.72291 6.73981L7.79839 8.36229L8.84986 8.31334ZM7.47436 10.6958C8.35891 10.2386 8.89618 9.30802 8.84986 8.31334L7.79839 8.36229C7.82555 8.94613 7.51019 9.49234 6.99097 9.76076L7.47436 10.6958ZM6.03153 11.4417L7.47436 10.6958L6.99097 9.76076L5.54815 10.5066L6.03153 11.4417ZM5.45909 13.5781C4.98356 12.8363 5.24883 11.8463 6.03153 11.4417L5.54815 10.5066C4.21473 11.1959 3.76281 12.8826 4.57292 14.1462L5.45909 13.5781ZM6.33568 14.9454L5.45909 13.5781L4.57292 14.1462L5.44951 15.5135L6.33568 14.9454ZM6.33568 17.6965C6.87309 16.8582 6.87309 15.7837 6.33568 14.9454L5.44951 15.5135C5.76497 16.0056 5.76497 16.6363 5.44951 17.1284L6.33568 17.6965ZM5.45909 19.0638L6.33568 17.6965L5.44951 17.1284L4.57292 18.4957L5.45909 19.0638ZM6.03153 21.2002C5.24883 20.7956 4.98356 19.8056 5.45909 19.0638L4.57292 18.4957C3.7628 19.7594 4.21473 21.446 5.54815 22.1353L6.03153 21.2002ZM7.47436 21.9461L6.03153 21.2002L5.54815 22.1353L6.99097 22.8812L7.47436 21.9461ZM8.84986 24.3286C8.89618 23.3339 8.35891 22.4033 7.47436 21.9461L6.99097 22.8812C7.51019 23.1496 7.82555 23.6958 7.79839 24.2797L8.84986 24.3286ZM8.77439 25.951L8.84986 24.3286L7.79839 24.2797L7.72291 25.9021L8.77439 25.951ZM10.3383 27.515C9.45823 27.5559 8.73349 26.8312 8.77439 25.951L7.72291 25.9021C7.65316 27.4015 8.88786 28.6362 10.3873 28.5665L10.3383 27.515ZM10.8973 27.489L10.3383 27.515L10.3873 28.5665L10.9462 28.5404L10.8973 27.489ZM10.4202 27.8551L8.75691 33.0826L9.76002 33.4018L11.4233 28.1743L10.4202 27.8551ZM8.75691 33.0826C7.91584 35.726 9.55107 38.5155 12.2685 39.0729L12.48 38.0418C10.3751 37.61 9.10854 35.4493 9.76002 33.4018L8.75691 33.0826ZM12.2685 39.0729L16.1262 39.8643L16.3378 38.8331L12.48 38.0418L12.2685 39.0729ZM16.1262 39.8643C17.4792 40.1418 18.8599 39.5351 19.5704 38.3508L18.6679 37.8092C18.1871 38.6104 17.253 39.0209 16.3378 38.8331L16.1262 39.8643ZM19.5704 38.3508C19.6274 38.2558 19.7761 38.2488 19.84 38.3553L20.7427 37.8137C20.2768 37.0373 19.1406 37.0213 18.6679 37.8092L19.5704 38.3508ZM19.84 38.3553C20.5455 39.5311 21.9131 40.1551 23.2651 39.9035L23.0725 38.8686C22.1567 39.0391 21.224 38.6159 20.7427 37.8137L19.84 38.3553ZM23.2651 39.9035L27.9089 39.0396L27.7164 38.0047L23.0725 38.8686L23.2651 39.9035ZM27.9089 39.0396C30.748 38.5114 32.4578 35.5875 31.526 32.8542L30.5297 33.1939C31.2544 35.3198 29.9245 37.5939 27.7164 38.0047L27.9089 39.0396ZM31.526 32.8542L29.8232 27.8593L28.8269 28.199L30.5297 33.1939L31.526 32.8542ZM29.5985 27.515L29.3495 27.5034L29.3006 28.5549L29.5496 28.5665L29.5985 27.515ZM31.1624 25.951C31.2034 26.8312 30.4786 27.5559 29.5985 27.515L29.5496 28.5665C31.049 28.6362 32.2837 27.4015 32.2139 25.9021L31.1624 25.951ZM31.087 24.3286L31.1624 25.951L32.2139 25.9021L32.1384 24.2797L31.087 24.3286ZM32.4625 21.9461C31.578 22.4033 31.0407 23.3339 31.087 24.3286L32.1384 24.2797C32.1113 23.6958 32.4267 23.1496 32.9459 22.8812L32.4625 21.9461ZM33.9053 21.2002L32.4625 21.9461L32.9459 22.8812L34.3887 22.1353L33.9053 21.2002ZM34.4778 19.0639C34.9533 19.8056 34.688 20.7956 33.9053 21.2002L34.3887 22.1353C35.7221 21.446 36.174 19.7594 35.3639 18.4957L34.4778 19.0639ZM33.6012 17.6965L34.4778 19.0639L35.3639 18.4957L34.4873 17.1284L33.6012 17.6965ZM33.6012 14.9454C33.0638 15.7837 33.0638 16.8582 33.6012 17.6965L34.4873 17.1284C34.1719 16.6363 34.1719 16.0056 34.4873 15.5135L33.6012 14.9454ZM34.4778 13.5781L33.6012 14.9454L34.4873 15.5135L35.3639 14.1462L34.4778 13.5781ZM33.9053 11.4417C34.688 11.8463 34.9533 12.8363 34.4778 13.5781L35.3639 14.1462C36.174 12.8826 35.7221 11.1959 34.3887 10.5066L33.9053 11.4417ZM32.4625 10.6958L33.9053 11.4417L34.3887 10.5066L32.9459 9.76076L32.4625 10.6958ZM31.087 8.31334C31.0407 9.30802 31.5779 10.2386 32.4625 10.6958L32.9459 9.76076C32.4267 9.49234 32.1113 8.94613 32.1384 8.36229L31.087 8.31334ZM31.1624 6.69092L31.087 8.31334L32.1384 8.36229L32.2139 6.73981L31.1624 6.69092ZM29.5985 5.12695C30.4786 5.086 31.2034 5.81076 31.1624 6.69092L32.2139 6.73981C32.2837 5.24038 31.049 4.0057 29.5496 4.07546L29.5985 5.12695ZM27.976 5.20242L29.5985 5.12695L29.5496 4.07546L27.9271 4.15093L27.976 5.20242ZM25.5935 3.8269C26.0508 4.71145 26.9814 5.2487 27.976 5.20242L27.9271 4.15093C27.3433 4.17809 26.7971 3.86273 26.5287 3.34351L25.5935 3.8269ZM24.8477 2.38407L25.5935 3.8269L26.5287 3.34351L25.7828 1.90069L24.8477 2.38407Z" fill="#146EF5"/>
<mask id="mask0_191_3067" style="mask-type:luminance" maskUnits="userSpaceOnUse" x="8" y="5" width="23" height="32">
<path fill-rule="evenodd" clip-rule="evenodd" d="M23.2319 5.58115C23.0951 5.31663 22.7605 5.22698 22.5099 5.38768L20.2402 6.84273C20.0739 6.94936 19.8608 6.94936 19.6945 6.84273L17.4249 5.38768C17.1742 5.22698 16.8396 5.31663 16.7029 5.58115L15.4648 7.9761C15.3741 8.15157 15.1895 8.25815 14.9922 8.24894L12.2991 8.12368C12.0016 8.10984 11.7567 8.35478 11.7705 8.65221L11.8958 11.3453C11.905 11.5426 11.7984 11.7272 11.6229 11.8179L9.22797 13.056C8.9635 13.1927 8.87381 13.5273 9.03455 13.778L10.4896 16.0476C10.5962 16.2139 10.5962 16.4271 10.4896 16.5934L9.03455 18.863C8.87381 19.1137 8.9635 19.4483 9.22797 19.585L11.6229 20.8231C11.7984 20.9138 11.905 21.0984 11.8958 21.2957L11.7705 23.9888C11.7567 24.2863 12.0016 24.5312 12.2991 24.5174L14.3413 24.4224L12.383 35.5286L15.3115 33.478L17.3621 36.4065L19.1737 26.1322L19.6945 25.7983C19.8608 25.6917 20.0739 25.6917 20.2402 25.7983L20.5706 26.0101L22.4038 36.4065L24.4543 33.4779L27.3829 35.5285L25.4232 24.4145L27.6357 24.5174C27.9331 24.5312 28.1781 24.2863 28.1642 23.9888L28.0389 21.2957C28.0298 21.0984 28.1363 20.9138 28.3118 20.8231L30.7068 19.585C30.9712 19.4483 31.0609 19.1137 30.9002 18.863L29.4451 16.5934C29.3386 16.4271 29.3386 16.2139 29.4451 16.0476L30.9002 13.778C31.0609 13.5273 30.9712 13.1927 30.7068 13.056L28.3118 11.8179C28.1363 11.7272 28.0298 11.5426 28.0389 11.3453L28.1642 8.65221C28.1781 8.35478 27.9331 8.10984 27.6357 8.12368L24.9425 8.24894C24.7452 8.25815 24.5607 8.15157 24.47 7.9761L23.2319 5.58115Z" fill="white"/>
</mask>
<g mask="url(#mask0_191_3067)">
<path d="M14.3413 24.4224L15.3779 24.6052C15.4335 24.2903 15.3429 23.9673 15.1317 23.7272C14.9206 23.4871 14.6118 23.356 14.2924 23.3709L14.3413 24.4224ZM12.383 35.5286L11.3463 35.3458C11.2724 35.7651 11.4583 36.1876 11.8174 36.4164C12.1765 36.6451 12.638 36.6351 12.9867 36.3908L12.383 35.5286ZM15.3115 33.478L16.1738 32.8743C15.8403 32.3981 15.1839 32.2823 14.7077 32.6157L15.3115 33.478ZM17.3621 36.4065L16.4998 37.0103C16.744 37.3591 17.1742 37.5264 17.5899 37.4342C18.0056 37.342 18.3248 37.0086 18.3987 36.5893L17.3621 36.4065ZM19.1737 26.1322L18.6056 25.246C18.358 25.4047 18.1881 25.6598 18.1371 25.9494L19.1737 26.1322ZM20.5706 26.0101L21.6073 25.8273C21.5562 25.5377 21.3863 25.2827 21.1387 25.1239L20.5706 26.0101ZM22.4038 36.4065L21.3671 36.5893C21.4411 37.0085 21.7603 37.342 22.176 37.4342C22.5916 37.5263 23.0219 37.359 23.266 37.0102L22.4038 36.4065ZM24.4543 33.4779L25.0581 32.6157C24.8295 32.4556 24.5465 32.3928 24.2716 32.4413C23.9967 32.4898 23.7522 32.6455 23.5921 32.8742L24.4543 33.4779ZM27.3829 35.5285L26.7791 36.3908C27.1279 36.635 27.5894 36.6451 27.9485 36.4163C28.3075 36.1875 28.4935 35.765 28.4195 35.3457L27.3829 35.5285ZM25.4232 24.4145L25.4721 23.3629C25.1527 23.3481 24.8439 23.4792 24.6328 23.7193C24.4216 23.9594 24.331 24.2824 24.3865 24.5973L25.4232 24.4145ZM23.078 6.27384C22.8068 6.44773 22.4448 6.35073 22.2968 6.06452L24.167 5.09776C23.7456 4.28253 22.7144 4.00623 21.9418 4.50152L23.078 6.27384ZM20.8083 7.72889L23.078 6.27384L21.9418 4.50152L19.6721 5.95658L20.8083 7.72889ZM19.1264 7.72889C19.6389 8.05747 20.2958 8.05747 20.8083 7.72889L19.6721 5.95658C19.8521 5.84121 20.0827 5.84121 20.2626 5.95658L19.1264 7.72889ZM16.8567 6.27384L19.1264 7.72889L20.2626 5.95658L17.993 4.50152L16.8567 6.27384ZM17.6379 6.06452C17.49 6.35073 17.128 6.44773 16.8567 6.27384L17.993 4.50152C17.2203 4.00623 16.1892 4.28253 15.7678 5.09776L17.6379 6.06452ZM16.3999 8.45947L17.6379 6.06452L15.7678 5.09776L14.5297 7.49268L16.3999 8.45947ZM14.9432 9.30047C15.5514 9.32873 16.1203 9.00026 16.3999 8.45947L14.5297 7.49268C14.6279 7.30284 14.8276 7.18752 15.0411 7.19747L14.9432 9.30047ZM12.2501 9.17516L14.9432 9.30047L15.0411 7.19747L12.348 7.07216L12.2501 9.17516ZM12.822 8.60331C12.837 8.9251 12.572 9.19016 12.2501 9.17516L12.348 7.07216C11.4312 7.02952 10.6764 7.78442 10.719 8.7011L12.822 8.60331ZM12.9473 11.2964L12.822 8.60331L10.719 8.7011L10.8443 11.3943L12.9473 11.2964ZM12.1063 12.753C12.6471 12.4735 12.9756 11.9045 12.9473 11.2964L10.8443 11.3943C10.8344 11.1807 10.9497 10.981 11.1396 10.8828L12.1063 12.753ZM9.7114 13.9911L12.1063 12.753L11.1396 10.8828L8.74461 12.1209L9.7114 13.9911ZM9.92072 13.2099C10.0946 13.4811 9.99761 13.8431 9.7114 13.9911L8.74461 12.1209C7.92938 12.5424 7.65308 13.5735 8.14838 14.3461L9.92072 13.2099ZM11.3758 15.4795L9.92072 13.2099L8.14838 14.3461L9.60345 16.6158L11.3758 15.4795ZM11.3758 17.1615C11.7043 16.649 11.7043 15.9921 11.3758 15.4795L9.60345 16.6158C9.48808 16.4358 9.48808 16.2052 9.60345 16.0253L11.3758 17.1615ZM9.92072 19.4312L11.3758 17.1615L9.60345 16.0253L8.14837 18.2949L9.92072 19.4312ZM9.7114 18.6499C9.99761 18.7979 10.0946 19.1599 9.92072 19.4312L8.14837 18.2949C7.65308 19.0675 7.92938 20.0987 8.74461 20.5201L9.7114 18.6499ZM12.1063 19.8881L9.7114 18.6499L8.74461 20.5201L11.1396 21.7582L12.1063 19.8881ZM12.9473 21.3446C12.9756 20.7365 12.6471 20.1676 12.1063 19.8881L11.1396 21.7582C10.9497 21.6601 10.8344 21.4603 10.8443 21.2468L12.9473 21.3446ZM12.822 24.0377L12.9473 21.3446L10.8443 21.2468L10.719 23.9399L12.822 24.0377ZM12.2501 23.4659C12.572 23.4509 12.837 23.7159 12.822 24.0377L10.719 23.9399C10.6764 24.8566 11.4312 25.6115 12.348 25.5689L12.2501 23.4659ZM14.2924 23.3709L12.2501 23.4659L12.348 25.5689L14.3902 25.4738L14.2924 23.3709ZM13.4196 35.7114L15.3779 24.6052L13.3047 24.2396L11.3463 35.3458L13.4196 35.7114ZM14.7077 32.6157L11.7792 34.6663L12.9867 36.3908L15.9152 34.3403L14.7077 32.6157ZM18.2243 35.8028L16.1738 32.8743L14.4492 34.0818L16.4998 37.0103L18.2243 35.8028ZM18.1371 25.9494L16.3254 36.2237L18.3987 36.5893L20.2103 26.315L18.1371 25.9494ZM19.1264 24.9122L18.6056 25.246L19.7418 27.0184L20.2626 26.6845L19.1264 24.9122ZM20.8083 24.9122C20.2958 24.5836 19.6389 24.5836 19.1264 24.9122L20.2626 26.6845C20.0827 26.7998 19.8521 26.7998 19.6721 26.6845L20.8083 24.9122ZM21.1387 25.1239L20.8083 24.9122L19.6721 26.6845L20.0025 26.8963L21.1387 25.1239ZM23.4405 36.2237L21.6073 25.8273L19.534 26.1929L21.3671 36.5893L23.4405 36.2237ZM23.5921 32.8742L21.5415 35.8027L23.266 37.0102L25.3166 34.0817L23.5921 32.8742ZM27.9867 34.6663L25.0581 32.6157L23.8506 34.3402L26.7791 36.3908L27.9867 34.6663ZM24.3865 24.5973L26.3462 35.7113L28.4195 35.3457L26.4598 24.2317L24.3865 24.5973ZM27.6846 23.4659L25.4721 23.3629L25.3742 25.4659L27.5868 25.5689L27.6846 23.4659ZM27.1127 24.0377C27.0978 23.7159 27.3628 23.4509 27.6846 23.4659L27.5868 25.5689C28.5035 25.6115 29.2583 24.8566 29.2157 23.9399L27.1127 24.0377ZM26.9875 21.3446L27.1127 24.0377L29.2157 23.9399L29.0905 21.2468L26.9875 21.3446ZM27.8285 19.888C27.2876 20.1676 26.9591 20.7365 26.9875 21.3446L29.0905 21.2468C29.1003 21.4603 28.985 21.6601 28.7952 21.7582L27.8285 19.888ZM30.2233 18.6499L27.8285 19.888L28.7952 21.7582L31.1901 20.5201L30.2233 18.6499ZM30.014 19.4312C29.8402 19.1599 29.9372 18.7979 30.2233 18.6499L31.1901 20.5201C32.0053 20.0987 32.2817 19.0675 31.7864 18.2949L30.014 19.4312ZM28.559 17.1615L30.014 19.4312L31.7864 18.2949L30.3314 16.0253L28.559 17.1615ZM28.559 15.4795C28.2305 15.9921 28.2305 16.649 28.559 17.1615L30.3314 16.0253C30.4467 16.2052 30.4467 16.4358 30.3314 16.6158L28.559 15.4795ZM30.014 13.2099L28.559 15.4795L30.3314 16.6158L31.7864 14.3461L30.014 13.2099ZM30.2233 13.9911C29.9372 13.8432 29.8401 13.4811 30.014 13.2099L31.7864 14.3461C32.2817 13.5735 32.0053 12.5424 31.1901 12.1209L30.2233 13.9911ZM27.8285 12.753L30.2233 13.9911L31.1901 12.1209L28.7952 10.8828L27.8285 12.753ZM26.9875 11.2964C26.9591 11.9045 27.2876 12.4735 27.8285 12.753L28.7952 10.8828C28.985 10.981 29.1003 11.1807 29.0905 11.3943L26.9875 11.2964ZM27.1127 8.60331L26.9875 11.2964L29.0905 11.3943L29.2157 8.7011L27.1127 8.60331ZM27.6846 9.17516C27.3628 9.19016 27.0978 8.9251 27.1127 8.60331L29.2157 8.7011C29.2583 7.78442 28.5035 7.02952 27.5868 7.07216L27.6846 9.17516ZM24.9915 9.30047L27.6846 9.17516L27.5868 7.07216L24.8937 7.19747L24.9915 9.30047ZM23.5349 8.45947C23.8145 9.00026 24.3833 9.32873 24.9915 9.30047L24.8937 7.19747C25.1071 7.18752 25.3069 7.30284 25.405 7.49268L23.5349 8.45947ZM22.2968 6.06452L23.5349 8.45947L25.405 7.49268L24.167 5.09776L22.2968 6.06452Z" fill="white"/>
</g>
<path d="M15.7568 17.3064L18.4052 20.1192C18.613 20.3399 18.9638 20.3399 19.1716 20.1192L25.2305 13.6841" stroke="white" stroke-width="1.68421"/>
</svg>
