<svg width="40" height="40" viewBox="0 0 40 40" fill="none" xmlns="http://www.w3.org/2000/svg">
<g clip-path="url(#clip0_191_3078)">
<path d="M4.30764 3.69232H27.6923V2.46155H4.30764V3.69232ZM36.923 12.9231V31.0769H38.1538V12.9231H36.923ZM2.46148 24V5.53847H1.23071V24H2.46148ZM25.5506 36.9896L20.9899 33.7891L20.2829 34.7965L24.8436 37.997L25.5506 36.9896ZM11.6923 34.4615H19.2224V33.2308H11.6923V34.4615ZM20.9899 33.7891C20.4721 33.4257 19.855 33.2308 19.2224 33.2308V34.4615C19.6019 34.4615 19.9723 34.5785 20.2829 34.7965L20.9899 33.7891ZM1.23071 24C1.23071 29.7777 5.9145 34.4615 11.6923 34.4615V33.2308C6.59422 33.2308 2.46148 29.098 2.46148 24H1.23071ZM27.6923 3.69232C32.7903 3.69232 36.923 7.82506 36.923 12.9231H38.1538C38.1538 7.14536 33.47 2.46155 27.6923 2.46155V3.69232ZM36.923 31.0769C36.923 36.9246 30.3372 40.3486 25.5506 36.9896L24.8436 37.997C30.4458 41.9284 38.1538 37.9209 38.1538 31.0769H36.923ZM4.30764 2.46155C2.6083 2.46155 1.23071 3.83914 1.23071 5.53847H2.46148C2.46148 4.51887 3.28804 3.69232 4.30764 3.69232V2.46155Z" fill="#146EF5"/>
<path fill-rule="evenodd" clip-rule="evenodd" d="M6.76943 7.39987C6.43806 7.39987 6.16943 7.6685 6.16943 7.99987V20.9229C6.16943 21.2543 6.43806 21.5229 6.76943 21.5229H9.24636V26.1537C9.24636 26.3964 9.39254 26.6152 9.61675 26.708C9.84095 26.8009 10.099 26.7496 10.2706 26.578L15.3257 21.5229H27.0771C27.4085 21.5229 27.6771 21.2543 27.6771 20.9229V7.99987C27.6771 7.6685 27.4085 7.39987 27.0771 7.39987H6.76943ZM7.36943 20.3229V8.59987H26.4771V20.3229H15.0771C14.918 20.3229 14.7654 20.3862 14.6529 20.4987L10.4464 24.7052V20.9229C10.4464 20.5916 10.1777 20.3229 9.84636 20.3229H7.36943ZM30.1539 14.1693H29.5539V15.3693H30.1539H32.0155V27.0924H29.5385C29.2072 27.0924 28.9385 27.361 28.9385 27.6924V31.4746L24.732 27.2681C24.6195 27.1556 24.4669 27.0924 24.3078 27.0924H15.3693V25.5385V24.9385H14.1693V25.5385V27.6924C14.1693 28.0237 14.4379 28.2924 14.7693 28.2924H24.0592L29.1143 33.3474C29.2859 33.519 29.5439 33.5703 29.7682 33.4775C29.9924 33.3846 30.1385 33.1658 30.1385 32.9231V28.2924H32.6155C32.9468 28.2924 33.2155 28.0237 33.2155 27.6924V14.7693C33.2155 14.4379 32.9468 14.1693 32.6155 14.1693H30.1539Z" fill="white"/>
</g>
<defs>
<clipPath id="clip0_191_3078">
<rect width="40" height="40" fill="white"/>
</clipPath>
</defs>
</svg>
