<svg width="40" height="40" viewBox="0 0 40 40" fill="none" xmlns="http://www.w3.org/2000/svg">
<path fill-rule="evenodd" clip-rule="evenodd" d="M8.125 7.125H7.125V8.125V28.75V29.75H8.125H13.5276C15.7346 29.75 17.822 30.7532 19.2007 32.4766C19.6104 32.9889 20.3896 32.9889 20.7993 32.4766C22.178 30.7532 24.2654 29.75 26.4724 29.75H31.875H32.875V28.75V8.125V7.125H31.875H26.5019C24.0588 7.125 21.7299 8.08265 20 9.76495C18.2701 8.08265 15.9412 7.125 13.4981 7.125H8.125ZM9.125 27.75V9.125H13.4981C15.7237 9.125 17.8288 10.1367 19.2191 11.8747L19.375 12.0695V29.8282C17.738 28.4963 15.6773 27.75 13.5276 27.75H9.125ZM20.625 29.8282C22.262 28.4963 24.3227 27.75 26.4724 27.75H30.875V9.125H26.5019C24.2763 9.125 22.1712 10.1367 20.7809 11.8747L20.625 12.0695V29.8282Z" fill="white"/>
<path d="M35 2.5H27.5744C24.8714 2.5 22.234 3.33322 20.0216 4.88617C20.0086 4.89526 19.9914 4.89526 19.9784 4.88617C17.766 3.33322 15.1286 2.5 12.4256 2.5H5C3.61929 2.5 2.5 3.61929 2.5 5.00001V31.3487C2.5 32.7294 3.61929 33.8487 5 33.8487H11.143C14.5788 33.8487 17.8284 35.4105 19.9748 38.0934C19.9877 38.1096 20.0123 38.1096 20.0253 38.0934C22.1716 35.4105 25.4212 33.8487 28.857 33.8487H35C36.3807 33.8487 37.5 32.7294 37.5 31.3487V5C37.5 3.61929 36.3807 2.5 35 2.5Z" stroke="#146EF5" stroke-width="2"/>
</svg>
