<svg width="57" height="56" viewBox="0 0 57 56" fill="none" xmlns="http://www.w3.org/2000/svg">
<rect x="0.5" width="56" height="56" rx="28" fill="#5A1CF5" fill-opacity="0.21"/>
<path d="M28.5 31C25.3299 31 22.5108 32.5306 20.716 34.906C20.3297 35.4172 20.1365 35.6728 20.1429 36.0183C20.1477 36.2852 20.3153 36.6219 20.5253 36.7867C20.7972 37 21.1738 37 21.9272 37H35.0727C35.8261 37 36.2028 37 36.4746 36.7867C36.6846 36.6219 36.8522 36.2852 36.8571 36.0183C36.8634 35.6728 36.6703 35.4172 36.284 34.906C34.4892 32.5306 31.67 31 28.5 31Z" stroke="#101828" stroke-width="2" stroke-linecap="round" stroke-linejoin="round"/>
<path d="M28.5 28C30.9853 28 33 25.9853 33 23.5C33 21.0147 30.9853 19 28.5 19C26.0147 19 24 21.0147 24 23.5C24 25.9853 26.0147 28 28.5 28Z" stroke="#101828" stroke-width="2" stroke-linecap="round" stroke-linejoin="round"/>
</svg>
