 <svg
          width="1124"
          height="292"
          viewBox="0 0 1124 292"
          fill="none"
          xmlns="http://www.w3.org/2000/svg">
          <g opacity="0.08">
            <rect
              x="178"
              width="1"
              height="120"
              rx="0.5"
              fill="#0E3F7E"
              fill-opacity="0.06"
            />
            <rect
              x="178"
              width="1"
              height="120"
              rx="0.5"
              fill="url(#paint0_linear_232_4934)"
            />
          </g>
          <g opacity="0.08">
            <rect
              x="945"
              width="1"
              height="120"
              rx="0.5"
              fill="#0E3F7E"
              fill-opacity="0.06"
            />
            <rect
              x="945"
              width="1"
              height="120"
              rx="0.5"
              fill="url(#paint1_linear_232_4934)"
            />
          </g>
          <g opacity="0.08">
            <rect
              y="132.5"
              width="172"
              height="1"
              rx="0.5"
              fill="#0E3F7E"
              fill-opacity="0.06"
            />
            <rect
              y="132.5"
              width="172"
              height="1"
              rx="0.5"
              fill="url(#paint2_linear_232_4934)"
            />
          </g>
          <rect
            x="177"
            y="131"
            width="4"
            height="4"
            rx="2"
            fill="#0E3F7E"
            fill-opacity="0.08"
          />
          <rect
            x="186"
            y="132.5"
            width="172"
            height="1"
            rx="0.5"
            fill="#0E3F7E"
            fill-opacity="0.06"
          />
          <rect
            x="363"
            y="131"
            width="4"
            height="4"
            rx="2"
            fill="#0E3F7E"
            fill-opacity="0.08"
          />
          <rect
            x="372"
            y="132.5"
            width="172"
            height="1"
            rx="0.5"
            fill="#0E3F7E"
            fill-opacity="0.06"
          />
          <rect
            x="549.5"
            y="120.5"
            width="25"
            height="25"
            rx="12.5"
            stroke="#0E3F7E"
            stroke-opacity="0.06"
          />
          <rect
            x="580"
            y="132.5"
            width="172"
            height="1"
            rx="0.5"
            fill="#0E3F7E"
            fill-opacity="0.06"
          />
          <rect
            x="757"
            y="131"
            width="4"
            height="4"
            rx="2"
            fill="#0E3F7E"
            fill-opacity="0.08"
          />
          <rect
            x="766"
            y="132.5"
            width="172"
            height="1"
            rx="0.5"
            fill="#0E3F7E"
            fill-opacity="0.06"
          />
          <rect
            x="943"
            y="131"
            width="4"
            height="4"
            rx="2"
            fill="#0E3F7E"
            fill-opacity="0.08"
          />
          <g opacity="0.08">
            <rect
              x="952"
              y="132.5"
              width="172"
              height="1"
              rx="0.5"
              fill="#0E3F7E"
              fill-opacity="0.06"
            />
            <rect
              x="952"
              y="132.5"
              width="172"
              height="1"
              rx="0.5"
              fill="url(#paint3_linear_232_4934)"
            />
          </g>
          <rect
            x="178"
            y="146"
            width="1"
            height="120"
            fill="#0E3F7E"
            fill-opacity="0.06"
          />
          <path
            d="M429.928 224L419.464 188.912H425.848L431.416 207.44C431.704 208.4 431.976 209.424 432.232 210.512C432.488 211.568 432.744 212.864 433 214.4C433.288 212.832 433.56 211.536 433.816 210.512C434.104 209.456 434.392 208.432 434.68 207.44L440.248 188.912H447.016L452.44 207.44C452.728 208.432 453 209.472 453.256 210.56C453.544 211.648 453.832 212.928 454.12 214.4C454.44 212.768 454.728 211.44 454.984 210.416C455.272 209.36 455.544 208.4 455.8 207.536L461.464 188.912H467.704L457.048 224H451.096L443.608 198.464L435.928 224H429.928ZM477.682 224.624C475.346 224.624 473.266 224.096 471.442 223.04C469.65 221.952 468.242 220.48 467.218 218.624C466.194 216.736 465.682 214.576 465.682 212.144C465.682 209.68 466.178 207.504 467.17 205.616C468.162 203.728 469.554 202.256 471.346 201.2C473.138 200.112 475.186 199.568 477.49 199.568C479.89 199.568 481.954 200.08 483.682 201.104C485.41 202.096 486.738 203.488 487.666 205.28C488.626 207.072 489.106 209.216 489.106 211.712V213.488L468.754 213.536L468.85 209.792H483.298C483.298 208.16 482.77 206.848 481.714 205.856C480.69 204.864 479.298 204.368 477.538 204.368C476.162 204.368 474.994 204.656 474.034 205.232C473.106 205.808 472.402 206.672 471.922 207.824C471.442 208.976 471.202 210.384 471.202 212.048C471.202 214.608 471.746 216.544 472.834 217.856C473.954 219.168 475.602 219.824 477.778 219.824C479.378 219.824 480.69 219.52 481.714 218.912C482.77 218.304 483.458 217.44 483.778 216.32H489.202C488.69 218.912 487.41 220.944 485.362 222.416C483.346 223.888 480.786 224.624 477.682 224.624ZM511.818 188.912V224H505.674V188.912H511.818ZM519.594 209.072H509.946V203.888H519.258C520.954 203.888 522.25 203.472 523.146 202.64C524.042 201.776 524.49 200.56 524.49 198.992C524.49 197.488 524.026 196.336 523.098 195.536C522.17 194.736 520.826 194.336 519.066 194.336H509.754V188.912H519.594C523.082 188.912 525.818 189.76 527.802 191.456C529.786 193.152 530.778 195.472 530.778 198.416C530.778 200.528 530.266 202.304 529.242 203.744C528.218 205.152 526.698 206.176 524.682 206.816V206.144C526.858 206.656 528.506 207.616 529.626 209.024C530.746 210.432 531.306 212.256 531.306 214.496C531.306 216.48 530.858 218.192 529.962 219.632C529.066 221.04 527.754 222.128 526.026 222.896C524.33 223.632 522.282 224 519.882 224H509.754V218.576H519.594C521.354 218.576 522.698 218.16 523.626 217.328C524.554 216.496 525.018 215.296 525.018 213.728C525.018 212.256 524.538 211.12 523.578 210.32C522.65 209.488 521.322 209.072 519.594 209.072ZM545.724 224.624C543.388 224.624 541.308 224.096 539.484 223.04C537.692 221.952 536.284 220.48 535.26 218.624C534.236 216.736 533.724 214.576 533.724 212.144C533.724 209.68 534.22 207.504 535.212 205.616C536.204 203.728 537.596 202.256 539.388 201.2C541.18 200.112 543.228 199.568 545.532 199.568C547.932 199.568 549.996 200.08 551.724 201.104C553.452 202.096 554.78 203.488 555.708 205.28C556.668 207.072 557.148 209.216 557.148 211.712V213.488L536.796 213.536L536.892 209.792H551.34C551.34 208.16 550.812 206.848 549.756 205.856C548.732 204.864 547.34 204.368 545.58 204.368C544.204 204.368 543.036 204.656 542.076 205.232C541.148 205.808 540.444 206.672 539.964 207.824C539.484 208.976 539.244 210.384 539.244 212.048C539.244 214.608 539.788 216.544 540.876 217.856C541.996 219.168 543.644 219.824 545.82 219.824C547.42 219.824 548.732 219.52 549.756 218.912C550.812 218.304 551.5 217.44 551.82 216.32H557.244C556.732 218.912 555.452 220.944 553.404 222.416C551.388 223.888 548.828 224.624 545.724 224.624ZM566.779 224H560.971V188.288H566.779V224ZM571.962 224V200.288H577.818V224H571.962ZM574.842 195.536C573.85 195.536 573.002 195.2 572.298 194.528C571.626 193.824 571.29 192.976 571.29 191.984C571.29 190.992 571.626 190.16 572.298 189.488C573.002 188.816 573.85 188.48 574.842 188.48C575.834 188.48 576.666 188.816 577.338 189.488C578.042 190.16 578.394 190.992 578.394 191.984C578.394 192.976 578.042 193.824 577.338 194.528C576.666 195.2 575.834 195.536 574.842 195.536ZM593.516 224.624C591.18 224.624 589.1 224.096 587.276 223.04C585.484 221.952 584.076 220.48 583.052 218.624C582.028 216.736 581.516 214.576 581.516 212.144C581.516 209.68 582.012 207.504 583.004 205.616C583.996 203.728 585.388 202.256 587.18 201.2C588.972 200.112 591.02 199.568 593.324 199.568C595.724 199.568 597.788 200.08 599.516 201.104C601.244 202.096 602.572 203.488 603.5 205.28C604.46 207.072 604.94 209.216 604.94 211.712V213.488L584.588 213.536L584.684 209.792H599.132C599.132 208.16 598.604 206.848 597.548 205.856C596.524 204.864 595.132 204.368 593.372 204.368C591.996 204.368 590.828 204.656 589.868 205.232C588.94 205.808 588.236 206.672 587.756 207.824C587.276 208.976 587.036 210.384 587.036 212.048C587.036 214.608 587.58 216.544 588.668 217.856C589.788 219.168 591.436 219.824 593.612 219.824C595.212 219.824 596.524 219.52 597.548 218.912C598.604 218.304 599.292 217.44 599.612 216.32H605.036C604.524 218.912 603.244 220.944 601.196 222.416C599.18 223.888 596.62 224.624 593.516 224.624ZM614.402 224L604.994 200.288H611.234L615.362 211.184C615.874 212.592 616.306 213.888 616.658 215.072C617.042 216.224 617.314 217.12 617.474 217.76C617.634 217.024 617.906 216.08 618.29 214.928C618.706 213.744 619.17 212.496 619.682 211.184L624.002 200.288H630.05L620.162 224H614.402ZM641.939 224.624C639.603 224.624 637.523 224.096 635.699 223.04C633.907 221.952 632.499 220.48 631.475 218.624C630.451 216.736 629.939 214.576 629.939 212.144C629.939 209.68 630.435 207.504 631.427 205.616C632.419 203.728 633.811 202.256 635.603 201.2C637.395 200.112 639.443 199.568 641.747 199.568C644.147 199.568 646.211 200.08 647.939 201.104C649.667 202.096 650.995 203.488 651.923 205.28C652.883 207.072 653.363 209.216 653.363 211.712V213.488L633.011 213.536L633.107 209.792H647.555C647.555 208.16 647.027 206.848 645.971 205.856C644.947 204.864 643.555 204.368 641.795 204.368C640.419 204.368 639.251 204.656 638.291 205.232C637.363 205.808 636.659 206.672 636.179 207.824C635.699 208.976 635.459 210.384 635.459 212.048C635.459 214.608 636.003 216.544 637.091 217.856C638.211 219.168 639.859 219.824 642.035 219.824C643.635 219.824 644.947 219.52 645.971 218.912C647.027 218.304 647.715 217.44 648.035 216.32H653.459C652.947 218.912 651.667 220.944 649.619 222.416C647.603 223.888 645.043 224.624 641.939 224.624ZM669.068 224V200.288H674.924V224H669.068ZM671.948 195.536C670.956 195.536 670.108 195.2 669.404 194.528C668.732 193.824 668.396 192.976 668.396 191.984C668.396 190.992 668.732 190.16 669.404 189.488C670.108 188.816 670.956 188.48 671.948 188.48C672.94 188.48 673.772 188.816 674.444 189.488C675.148 190.16 675.5 190.992 675.5 191.984C675.5 192.976 675.148 193.824 674.444 194.528C673.772 195.2 672.94 195.536 671.948 195.536ZM685.87 224H680.014V200.288H685.438L685.918 203.36C686.654 202.176 687.694 201.248 689.038 200.576C690.414 199.904 691.902 199.568 693.502 199.568C696.478 199.568 698.718 200.448 700.222 202.208C701.758 203.968 702.526 206.368 702.526 209.408V224H696.67V210.8C696.67 208.816 696.222 207.344 695.326 206.384C694.43 205.392 693.214 204.896 691.678 204.896C689.854 204.896 688.43 205.472 687.406 206.624C686.382 207.776 685.87 209.312 685.87 211.232V224Z"
            fill="#1F2632"
          />
          <rect
            x="945"
            y="146"
            width="1"
            height="120"
            fill="#0E3F7E"
            fill-opacity="0.06"
          />
          <g opacity="0.08">
            <rect
              y="278.5"
              width="172"
              height="1"
              rx="0.5"
              fill="#0E3F7E"
              fill-opacity="0.06"
            />
            <rect
              y="278.5"
              width="172"
              height="1"
              rx="0.5"
              fill="url(#paint4_linear_232_4934)"
            />
          </g>
          <rect
            x="177"
            y="277"
            width="4"
            height="4"
            rx="2"
            fill="#0E3F7E"
            fill-opacity="0.08"
          />
          <rect
            x="186"
            y="278.5"
            width="172"
            height="1"
            rx="0.5"
            fill="#0E3F7E"
            fill-opacity="0.06"
          />
          <rect
            x="363"
            y="277"
            width="4"
            height="4"
            rx="2"
            fill="#0E3F7E"
            fill-opacity="0.08"
          />
          <rect
            x="372"
            y="278.5"
            width="172"
            height="1"
            rx="0.5"
            fill="#0E3F7E"
            fill-opacity="0.06"
          />
          <rect
            x="549.5"
            y="266.5"
            width="25"
            height="25"
            rx="12.5"
            stroke="#0E3F7E"
            stroke-opacity="0.06"
          />
          <rect
            x="580"
            y="278.5"
            width="172"
            height="1"
            rx="0.5"
            fill="#0E3F7E"
            fill-opacity="0.06"
          />
          <rect
            x="757"
            y="277"
            width="4"
            height="4"
            rx="2"
            fill="#0E3F7E"
            fill-opacity="0.08"
          />
          <rect
            x="766"
            y="278.5"
            width="172"
            height="1"
            rx="0.5"
            fill="#0E3F7E"
            fill-opacity="0.06"
          />
          <rect
            x="943"
            y="277"
            width="4"
            height="4"
            rx="2"
            fill="#0E3F7E"
            fill-opacity="0.08"
          />
          <g opacity="0.08">
            <rect
              x="952"
              y="278.5"
              width="172"
              height="1"
              rx="0.5"
              fill="#0E3F7E"
              fill-opacity="0.06"
            />
            <rect
              x="952"
              y="278.5"
              width="172"
              height="1"
              rx="0.5"
              fill="url(#paint5_linear_232_4934)"
            />
          </g>
          <defs>
            <linearGradient
              id="paint0_linear_232_4934"
              x1="178.5"
              y1="0"
              x2="178.5"
              y2="120"
              gradientUnits="userSpaceOnUse">
              <stop stop-color="#1D3E7A" stop-opacity="0" />
              <stop offset="1" stop-color="#1D3E7A" />
            </linearGradient>
            <linearGradient
              id="paint1_linear_232_4934"
              x1="945.5"
              y1="0"
              x2="945.5"
              y2="120"
              gradientUnits="userSpaceOnUse">
              <stop stop-color="#1D3E7A" stop-opacity="0" />
              <stop offset="1" stop-color="#1D3E7A" />
            </linearGradient>
            <linearGradient
              id="paint2_linear_232_4934"
              x1="0"
              y1="133"
              x2="172"
              y2="133"
              gradientUnits="userSpaceOnUse">
              <stop stop-color="#1D3E7A" stop-opacity="0" />
              <stop offset="1" stop-color="#1D3E7A" />
            </linearGradient>
            <linearGradient
              id="paint3_linear_232_4934"
              x1="1124"
              y1="133"
              x2="952"
              y2="133"
              gradientUnits="userSpaceOnUse">
              <stop stop-color="#1D3E7A" stop-opacity="0" />
              <stop offset="1" stop-color="#1D3E7A" />
            </linearGradient>
            <linearGradient
              id="paint4_linear_232_4934"
              x1="0"
              y1="279"
              x2="172"
              y2="279"
              gradientUnits="userSpaceOnUse">
              <stop stop-color="#1D3E7A" stop-opacity="0" />
              <stop offset="1" stop-color="#1D3E7A" />
            </linearGradient>
            <linearGradient
              id="paint5_linear_232_4934"
              x1="1124"
              y1="279"
              x2="952"
              y2="279"
              gradientUnits="userSpaceOnUse">
              <stop stop-color="#1D3E7A" stop-opacity="0" />
              <stop offset="1" stop-color="#1D3E7A" />
            </linearGradient>
          </defs>
        </svg>
