 <svg
            width="1124"
            height="143"
            viewBox="0 0 1124 143"
            fill="none"
            xmlns="http://www.w3.org/2000/svg">
            <g opacity="0.08">
              <rect
                y="12.5"
                width="172"
                height="1"
                rx="0.5"
                fill="#0E3F7E"
                fill-opacity="0.06"
              />
              <rect
                y="12.5"
                width="172"
                height="1"
                rx="0.5"
                fill="url(#paint0_linear_232_4844)"
              />
            </g>
            <rect
              x="177"
              y="11"
              width="4"
              height="4"
              rx="2"
              fill="#0E3F7E"
              fill-opacity="0.08"
            />
            <rect
              x="186"
              y="12.5"
              width="172"
              height="1"
              rx="0.5"
              fill="#0E3F7E"
              fill-opacity="0.06"
            />
            <rect
              x="363"
              y="11"
              width="4"
              height="4"
              rx="2"
              fill="#0E3F7E"
              fill-opacity="0.08"
            />
            <rect
              x="372"
              y="12.5"
              width="172"
              height="1"
              rx="0.5"
              fill="#0E3F7E"
              fill-opacity="0.06"
            />
            <rect
              x="549.5"
              y="0.5"
              width="25"
              height="25"
              rx="12.5"
              stroke="#0E3F7E"
              stroke-opacity="0.06"
            />
            <rect
              x="580"
              y="12.5"
              width="172"
              height="1"
              rx="0.5"
              fill="#0E3F7E"
              fill-opacity="0.06"
            />
            <rect
              x="757"
              y="11"
              width="4"
              height="4"
              rx="2"
              fill="#0E3F7E"
              fill-opacity="0.08"
            />
            <rect
              x="766"
              y="12.5"
              width="172"
              height="1"
              rx="0.5"
              fill="#0E3F7E"
              fill-opacity="0.06"
            />
            <rect
              x="943"
              y="11"
              width="4"
              height="4"
              rx="2"
              fill="#0E3F7E"
              fill-opacity="0.08"
            />
            <g opacity="0.08">
              <rect
                x="952"
                y="12.5"
                width="172"
                height="1"
                rx="0.5"
                fill="#0E3F7E"
                fill-opacity="0.06"
              />
              <rect
                x="952"
                y="12.5"
                width="172"
                height="1"
                rx="0.5"
                fill="url(#paint1_linear_232_4844)"
              />
            </g>
            <rect
              x="178"
              y="23"
              width="1"
              height="120"
              fill="#0E3F7E"
              fill-opacity="0.06"
            />
            <path
              d="M376.329 83.432C376.329 86.984 375.609 90.136 374.169 92.888C372.729 95.608 370.729 97.736 368.169 99.272C365.609 100.808 362.649 101.576 359.289 101.576C355.961 101.576 353.017 100.808 350.457 99.272C347.897 97.736 345.897 95.608 344.457 92.888C343.049 90.168 342.345 87.032 342.345 83.48C342.345 79.896 343.065 76.744 344.505 74.024C345.945 71.272 347.929 69.128 350.457 67.592C353.017 66.056 355.977 65.288 359.337 65.288C362.697 65.288 365.641 66.056 368.169 67.592C370.729 69.128 372.729 71.256 374.169 73.976C375.609 76.696 376.329 79.848 376.329 83.432ZM369.897 83.432C369.897 80.936 369.465 78.776 368.601 76.952C367.737 75.128 366.521 73.72 364.953 72.728C363.385 71.704 361.513 71.192 359.337 71.192C357.193 71.192 355.321 71.704 353.721 72.728C352.153 73.72 350.937 75.128 350.073 76.952C349.209 78.776 348.777 80.936 348.777 83.432C348.777 85.928 349.209 88.104 350.073 89.96C350.937 91.784 352.153 93.192 353.721 94.184C355.321 95.176 357.193 95.672 359.337 95.672C361.513 95.672 363.385 95.176 364.953 94.184C366.521 93.16 367.737 91.736 368.601 89.912C369.465 88.056 369.897 85.896 369.897 83.432ZM396.351 77.288H402.207V101H396.783L396.351 97.832C395.647 98.952 394.591 99.864 393.183 100.568C391.775 101.272 390.271 101.624 388.671 101.624C385.951 101.624 383.823 100.76 382.287 99.032C380.751 97.304 379.983 95 379.983 92.12V77.288H385.839V90.056C385.839 92.296 386.271 93.912 387.135 94.904C387.999 95.896 389.247 96.392 390.879 96.392C392.735 96.392 394.111 95.848 395.007 94.76C395.903 93.64 396.351 91.96 396.351 89.72V77.288ZM422.175 77.192V82.616H420.015C417.871 82.616 416.191 83.192 414.975 84.344C413.759 85.464 413.151 87.176 413.151 89.48V101H407.295V77.336H412.815L413.295 82.232H412.719C413.039 80.664 413.791 79.384 414.975 78.392C416.159 77.4 417.695 76.904 419.583 76.904C419.999 76.904 420.415 76.92 420.831 76.952C421.247 76.984 421.695 77.064 422.175 77.192ZM452.853 101.576C449.429 101.576 446.453 100.84 443.925 99.368C441.429 97.864 439.477 95.768 438.069 93.08C436.693 90.36 436.005 87.16 436.005 83.48C436.005 79.832 436.709 76.648 438.117 73.928C439.557 71.208 441.573 69.096 444.165 67.592C446.757 66.088 449.749 65.336 453.141 65.336C455.925 65.336 458.421 65.848 460.629 66.872C462.837 67.896 464.661 69.336 466.101 71.192C467.541 73.016 468.453 75.192 468.837 77.72H462.357C461.749 75.672 460.613 74.088 458.949 72.968C457.317 71.816 455.317 71.24 452.949 71.24C450.837 71.24 448.981 71.736 447.381 72.728C445.813 73.72 444.597 75.128 443.733 76.952C442.869 78.776 442.437 80.952 442.437 83.48C442.437 85.912 442.869 88.056 443.733 89.912C444.597 91.736 445.813 93.16 447.381 94.184C448.981 95.176 450.837 95.672 452.949 95.672C455.349 95.672 457.397 95.096 459.093 93.944C460.821 92.792 461.973 91.24 462.549 89.288H468.933C468.485 91.72 467.509 93.864 466.005 95.72C464.533 97.576 462.661 99.016 460.389 100.04C458.149 101.064 455.637 101.576 452.853 101.576ZM471.226 89.096C471.226 86.632 471.77 84.472 472.858 82.616C473.946 80.728 475.45 79.256 477.37 78.2C479.29 77.144 481.466 76.616 483.898 76.616C486.362 76.616 488.538 77.144 490.426 78.2C492.346 79.256 493.85 80.728 494.938 82.616C496.026 84.472 496.57 86.632 496.57 89.096C496.57 91.56 496.026 93.736 494.938 95.624C493.85 97.48 492.346 98.936 490.426 99.992C488.538 101.048 486.362 101.576 483.898 101.576C481.466 101.576 479.29 101.048 477.37 99.992C475.45 98.936 473.946 97.48 472.858 95.624C471.77 93.736 471.226 91.56 471.226 89.096ZM477.082 89.096C477.082 90.536 477.37 91.8 477.946 92.888C478.554 93.976 479.354 94.824 480.346 95.432C481.37 96.04 482.554 96.344 483.898 96.344C485.242 96.344 486.426 96.04 487.45 95.432C488.474 94.824 489.274 93.976 489.85 92.888C490.426 91.8 490.714 90.536 490.714 89.096C490.714 87.624 490.426 86.36 489.85 85.304C489.274 84.216 488.474 83.368 487.45 82.76C486.426 82.152 485.242 81.848 483.898 81.848C482.554 81.848 481.37 82.152 480.346 82.76C479.354 83.368 478.554 84.216 477.946 85.304C477.37 86.36 477.082 87.624 477.082 89.096ZM515.132 77.192V82.616H512.972C510.828 82.616 509.148 83.192 507.932 84.344C506.716 85.464 506.108 87.176 506.108 89.48V101H500.252V77.336H505.772L506.252 82.232H505.676C505.996 80.664 506.748 79.384 507.932 78.392C509.116 77.4 510.652 76.904 512.54 76.904C512.956 76.904 513.372 76.92 513.788 76.952C514.204 76.984 514.652 77.064 515.132 77.192ZM527.947 101.624C525.611 101.624 523.531 101.096 521.707 100.04C519.915 98.952 518.507 97.48 517.483 95.624C516.459 93.736 515.947 91.576 515.947 89.144C515.947 86.68 516.443 84.504 517.435 82.616C518.427 80.728 519.819 79.256 521.611 78.2C523.403 77.112 525.451 76.568 527.755 76.568C530.155 76.568 532.219 77.08 533.947 78.104C535.675 79.096 537.003 80.488 537.931 82.28C538.891 84.072 539.371 86.216 539.371 88.712V90.488L519.019 90.536L519.115 86.792H533.563C533.563 85.16 533.035 83.848 531.979 82.856C530.955 81.864 529.563 81.368 527.803 81.368C526.427 81.368 525.259 81.656 524.299 82.232C523.371 82.808 522.667 83.672 522.187 84.824C521.707 85.976 521.467 87.384 521.467 89.048C521.467 91.608 522.011 93.544 523.099 94.856C524.219 96.168 525.867 96.824 528.043 96.824C529.643 96.824 530.955 96.52 531.979 95.912C533.035 95.304 533.723 94.44 534.043 93.32H539.467C538.955 95.912 537.675 97.944 535.627 99.416C533.611 100.888 531.051 101.624 527.947 101.624ZM558.915 101H552.579L565.251 65.912H571.539L584.211 101H577.731L574.899 92.888H561.795L558.915 101ZM567.603 76.376L563.571 87.704H573.123L569.091 76.376C568.963 75.896 568.819 75.416 568.659 74.936C568.499 74.456 568.403 74.04 568.371 73.688C568.307 74.008 568.195 74.424 568.035 74.936C567.907 75.416 567.763 75.896 567.603 76.376ZM595.453 101.624C593.149 101.624 591.165 101.112 589.501 100.088C587.869 99.032 586.589 97.576 585.661 95.72C584.765 93.864 584.317 91.704 584.317 89.24C584.317 86.776 584.765 84.6 585.661 82.712C586.589 80.792 587.917 79.288 589.645 78.2C591.373 77.112 593.421 76.568 595.789 76.568C597.453 76.568 598.973 76.904 600.349 77.576C601.725 78.216 602.781 79.128 603.517 80.312V65.288H609.325V101H603.949L603.565 97.304C602.861 98.648 601.773 99.704 600.301 100.472C598.861 101.24 597.245 101.624 595.453 101.624ZM596.749 96.248C598.125 96.248 599.309 95.96 600.301 95.384C601.293 94.776 602.061 93.928 602.605 92.84C603.181 91.72 603.469 90.456 603.469 89.048C603.469 87.608 603.181 86.36 602.605 85.304C602.061 84.216 601.293 83.368 600.301 82.76C599.309 82.12 598.125 81.8 596.749 81.8C595.405 81.8 594.237 82.12 593.245 82.76C592.253 83.368 591.485 84.216 590.941 85.304C590.429 86.392 590.173 87.64 590.173 89.048C590.173 90.456 590.429 91.704 590.941 92.792C591.485 93.88 592.253 94.728 593.245 95.336C594.237 95.944 595.405 96.248 596.749 96.248ZM621.188 101L611.78 77.288H618.02L622.148 88.184C622.66 89.592 623.092 90.888 623.444 92.072C623.828 93.224 624.1 94.12 624.26 94.76C624.42 94.024 624.692 93.08 625.076 91.928C625.492 90.744 625.956 89.496 626.468 88.184L630.788 77.288H636.836L626.948 101H621.188ZM645.173 101.624C642.677 101.624 640.693 100.952 639.221 99.608C637.781 98.232 637.061 96.44 637.061 94.232C637.061 92.056 637.813 90.328 639.317 89.048C640.853 87.736 643.029 86.968 645.845 86.744L652.949 86.168V85.64C652.949 84.552 652.741 83.688 652.325 83.048C651.941 82.376 651.381 81.896 650.645 81.608C649.909 81.288 649.045 81.128 648.053 81.128C646.325 81.128 644.997 81.48 644.069 82.184C643.141 82.856 642.677 83.816 642.677 85.064H637.685C637.685 83.336 638.117 81.848 638.981 80.6C639.877 79.32 641.125 78.328 642.725 77.624C644.357 76.92 646.229 76.568 648.341 76.568C650.485 76.568 652.325 76.952 653.861 77.72C655.397 78.456 656.581 79.576 657.413 81.08C658.245 82.552 658.661 84.392 658.661 86.6V101H653.525L653.093 97.496C652.581 98.712 651.589 99.704 650.117 100.472C648.677 101.24 647.029 101.624 645.173 101.624ZM647.045 97.208C648.869 97.208 650.309 96.696 651.365 95.672C652.453 94.648 652.997 93.224 652.997 91.4V90.152L648.053 90.536C646.229 90.696 644.933 91.08 644.165 91.688C643.397 92.264 643.013 93.032 643.013 93.992C643.013 95.048 643.365 95.848 644.069 96.392C644.773 96.936 645.765 97.208 647.045 97.208ZM669.31 101H663.454V77.288H668.878L669.358 80.36C670.094 79.176 671.134 78.248 672.478 77.576C673.854 76.904 675.342 76.568 676.942 76.568C679.918 76.568 682.158 77.448 683.662 79.208C685.198 80.968 685.966 83.368 685.966 86.408V101H680.11V87.8C680.11 85.816 679.662 84.344 678.766 83.384C677.87 82.392 676.654 81.896 675.118 81.896C673.294 81.896 671.87 82.472 670.846 83.624C669.822 84.776 669.31 86.312 669.31 88.232V101ZM688.408 77.288H703.384V82.184H688.408V77.288ZM698.824 101H692.968V69.896H698.824V101ZM713.028 101.624C710.532 101.624 708.548 100.952 707.076 99.608C705.636 98.232 704.916 96.44 704.916 94.232C704.916 92.056 705.668 90.328 707.172 89.048C708.708 87.736 710.884 86.968 713.7 86.744L720.804 86.168V85.64C720.804 84.552 720.596 83.688 720.18 83.048C719.796 82.376 719.236 81.896 718.5 81.608C717.764 81.288 716.9 81.128 715.908 81.128C714.18 81.128 712.852 81.48 711.924 82.184C710.996 82.856 710.532 83.816 710.532 85.064H705.54C705.54 83.336 705.972 81.848 706.836 80.6C707.732 79.32 708.98 78.328 710.58 77.624C712.212 76.92 714.084 76.568 716.196 76.568C718.34 76.568 720.18 76.952 721.716 77.72C723.252 78.456 724.436 79.576 725.268 81.08C726.1 82.552 726.516 84.392 726.516 86.6V101H721.38L720.948 97.496C720.436 98.712 719.444 99.704 717.972 100.472C716.532 101.24 714.884 101.624 713.028 101.624ZM714.9 97.208C716.724 97.208 718.164 96.696 719.22 95.672C720.308 94.648 720.852 93.224 720.852 91.4V90.152L715.908 90.536C714.084 90.696 712.788 91.08 712.02 91.688C711.252 92.264 710.868 93.032 710.868 93.992C710.868 95.048 711.22 95.848 711.924 96.392C712.628 96.936 713.62 97.208 714.9 97.208ZM729.964 88.616C729.964 86.312 730.428 84.264 731.356 82.472C732.316 80.648 733.644 79.208 735.34 78.152C737.036 77.096 739.004 76.568 741.244 76.568C743.26 76.568 744.988 77.016 746.428 77.912C747.868 78.776 748.876 79.992 749.452 81.56L748.828 82.088L749.308 77.288H754.732V99.8C754.732 102.424 754.22 104.696 753.196 106.616C752.204 108.568 750.78 110.056 748.924 111.08C747.1 112.136 744.892 112.664 742.3 112.664C738.908 112.664 736.124 111.752 733.948 109.928C731.772 108.104 730.492 105.608 730.108 102.44H735.964C736.156 103.976 736.796 105.176 737.884 106.04C739.004 106.904 740.476 107.336 742.3 107.336C744.316 107.336 745.916 106.744 747.1 105.56C748.316 104.408 748.924 102.84 748.924 100.856V94.952L749.596 95.576C749.02 97.08 747.964 98.28 746.428 99.176C744.892 100.072 743.116 100.52 741.1 100.52C738.86 100.52 736.908 100.008 735.244 98.984C733.58 97.96 732.284 96.552 731.356 94.76C730.428 92.968 729.964 90.92 729.964 88.616ZM735.868 88.472C735.868 89.816 736.124 91.016 736.636 92.072C737.18 93.096 737.932 93.912 738.892 94.52C739.852 95.128 740.972 95.432 742.252 95.432C743.596 95.432 744.748 95.144 745.708 94.568C746.7 93.96 747.452 93.144 747.964 92.12C748.508 91.064 748.78 89.848 748.78 88.472C748.78 87.096 748.524 85.912 748.012 84.92C747.5 83.896 746.748 83.096 745.756 82.52C744.796 81.944 743.628 81.656 742.252 81.656C740.94 81.656 739.804 81.96 738.844 82.568C737.884 83.144 737.148 83.944 736.636 84.968C736.124 85.992 735.868 87.16 735.868 88.472ZM770.441 101.624C768.105 101.624 766.025 101.096 764.201 100.04C762.409 98.952 761.001 97.48 759.977 95.624C758.953 93.736 758.441 91.576 758.441 89.144C758.441 86.68 758.937 84.504 759.929 82.616C760.921 80.728 762.313 79.256 764.105 78.2C765.897 77.112 767.945 76.568 770.249 76.568C772.649 76.568 774.713 77.08 776.441 78.104C778.169 79.096 779.497 80.488 780.425 82.28C781.385 84.072 781.865 86.216 781.865 88.712V90.488L761.513 90.536L761.609 86.792H776.057C776.057 85.16 775.529 83.848 774.473 82.856C773.449 81.864 772.057 81.368 770.297 81.368C768.921 81.368 767.753 81.656 766.793 82.232C765.865 82.808 765.161 83.672 764.681 84.824C764.201 85.976 763.961 87.384 763.961 89.048C763.961 91.608 764.505 93.544 765.593 94.856C766.713 96.168 768.361 96.824 770.537 96.824C772.137 96.824 773.449 96.52 774.473 95.912C775.529 95.304 776.217 94.44 776.537 93.32H781.961C781.449 95.912 780.169 97.944 778.121 99.416C776.105 100.888 773.545 101.624 770.441 101.624Z"
              fill="#1F2632"
            />
            <rect
              x="945"
              y="23"
              width="1"
              height="120"
              fill="#0E3F7E"
              fill-opacity="0.06"
            />
            <defs>
              <linearGradient
                id="paint0_linear_232_4844"
                x1="0"
                y1="13"
                x2="172"
                y2="13"
                gradientUnits="userSpaceOnUse">
                <stop stop-color="#1D3E7A" stop-opacity="0" />
                <stop offset="1" stop-color="#1D3E7A" />
              </linearGradient>
              <linearGradient
                id="paint1_linear_232_4844"
                x1="1124"
                y1="13"
                x2="952"
                y2="13"
                gradientUnits="userSpaceOnUse">
                <stop stop-color="#1D3E7A" stop-opacity="0" />
                <stop offset="1" stop-color="#1D3E7A" />
              </linearGradient>
            </defs>
          </svg>