<svg width="1102" height="4" viewBox="0 0 1102 4" fill="none" xmlns="http://www.w3.org/2000/svg">
<g opacity="0.08">
<rect y="1.5" width="172" height="1" rx="0.5" fill="#0E3F7E" fill-opacity="0.06"/>
<rect y="1.5" width="172" height="1" rx="0.5" fill="url(#paint0_linear_191_3474)"/>
</g>
<rect x="177" width="4" height="4" rx="2" fill="#0E3F7E" fill-opacity="0.08"/>
<rect x="186" y="1.5" width="172" height="1" rx="0.5" fill="#0E3F7E" fill-opacity="0.06"/>
<rect x="363" width="4" height="4" rx="2" fill="#0E3F7E" fill-opacity="0.08"/>
<rect x="372" y="1.5" width="172" height="1" rx="0.5" fill="#0E3F7E" fill-opacity="0.06"/>
<rect x="549" width="4" height="4" rx="2" fill="#0E3F7E" fill-opacity="0.08"/>
<rect x="558" y="1.5" width="172" height="1" rx="0.5" fill="#0E3F7E" fill-opacity="0.06"/>
<rect x="735" width="4" height="4" rx="2" fill="#0E3F7E" fill-opacity="0.08"/>
<rect x="744" y="1.5" width="172" height="1" rx="0.5" fill="#0E3F7E" fill-opacity="0.06"/>
<rect x="921" width="4" height="4" rx="2" fill="#0E3F7E" fill-opacity="0.08"/>
<g opacity="0.08">
<rect x="930" y="1.5" width="172" height="1" rx="0.5" fill="#0E3F7E" fill-opacity="0.06"/>
<rect x="930" y="1.5" width="172" height="1" rx="0.5" fill="url(#paint1_linear_191_3474)"/>
</g>
<defs>
<linearGradient id="paint0_linear_191_3474" x1="0" y1="2" x2="172" y2="2" gradientUnits="userSpaceOnUse">
<stop stop-color="#1D3E7A" stop-opacity="0"/>
<stop offset="1" stop-color="#1D3E7A"/>
</linearGradient>
<linearGradient id="paint1_linear_191_3474" x1="1102" y1="2" x2="930" y2="2" gradientUnits="userSpaceOnUse">
<stop stop-color="#1D3E7A" stop-opacity="0"/>
<stop offset="1" stop-color="#1D3E7A"/>
</linearGradient>
</defs>
</svg>
