<svg width="164" height="24" viewBox="0 0 164 24" fill="none" xmlns="http://www.w3.org/2000/svg">
<rect x="0.5" y="0.5" width="163" height="23" rx="11.5" stroke="white" stroke-opacity="0.14"/>
<rect x="8" y="6" width="12" height="12" rx="6" fill="#49C9B0" fill-opacity="0.16"/>
<rect x="12" y="10" width="4" height="4" rx="2" fill="#2A8674"/>
<rect opacity="0.5" x="12" y="10" width="4" height="4" rx="2" fill="#2A8674"/>
<path d="M25.4148 16H24.3068L27.5114 7.27273H28.6023L31.8068 16H30.6989L28.0909 8.65341H28.0227L25.4148 16ZM25.8239 12.5909H30.2898V13.5284H25.8239V12.5909ZM34.0355 7.27273V16H33.0298V7.27273H34.0355ZM36.8832 7.27273V16H35.8775V7.27273H36.8832ZM46.7365 10.9205L45.8331 11.1761C45.7763 11.0256 45.6925 10.8793 45.5817 10.7372C45.4737 10.5923 45.326 10.473 45.1385 10.3793C44.951 10.2855 44.7109 10.2386 44.4183 10.2386C44.0178 10.2386 43.6839 10.331 43.4169 10.5156C43.1527 10.6974 43.0206 10.929 43.0206 11.2102C43.0206 11.4602 43.1115 11.6577 43.2933 11.8026C43.4751 11.9474 43.7592 12.0682 44.1456 12.1648L45.1172 12.4034C45.7024 12.5455 46.1385 12.7628 46.4254 13.0554C46.7124 13.3452 46.8558 13.7187 46.8558 14.1761C46.8558 14.5511 46.7479 14.8864 46.532 15.1818C46.3189 15.4773 46.0206 15.7102 45.6371 15.8807C45.2536 16.0511 44.8075 16.1364 44.299 16.1364C43.6314 16.1364 43.0788 15.9915 42.6413 15.7017C42.2038 15.4119 41.9268 14.9886 41.8104 14.4318L42.7649 14.1932C42.8558 14.5455 43.0277 14.8097 43.2805 14.9858C43.5362 15.1619 43.87 15.25 44.282 15.25C44.7507 15.25 45.1229 15.1506 45.3984 14.9517C45.6768 14.75 45.8161 14.5085 45.8161 14.2273C45.8161 14 45.7365 13.8097 45.5774 13.6562C45.4183 13.5 45.174 13.3835 44.8445 13.3068L43.7536 13.0511C43.1541 12.9091 42.7138 12.6889 42.4325 12.3906C42.1541 12.0895 42.0149 11.7131 42.0149 11.2614C42.0149 10.892 42.1186 10.5653 42.326 10.2812C42.5362 9.99716 42.8217 9.77415 43.1825 9.61222C43.5462 9.45028 43.9581 9.36932 44.4183 9.36932C45.0661 9.36932 45.5746 9.51136 45.9439 9.79545C46.3161 10.0795 46.5803 10.4545 46.7365 10.9205ZM49.0174 18.4545C48.8469 18.4545 48.695 18.4403 48.5614 18.4119C48.4279 18.3864 48.3356 18.3608 48.2844 18.3352L48.5401 17.4489C48.7844 17.5114 49.0004 17.5341 49.1879 17.517C49.3754 17.5 49.5415 17.4162 49.6864 17.2656C49.8342 17.1179 49.9691 16.8778 50.0913 16.5455L50.2788 16.0341L47.8583 9.45455H48.9492L50.756 14.6705H50.8242L52.631 9.45455H53.7219L50.9435 16.9545C50.8185 17.2926 50.6637 17.5724 50.479 17.794C50.2944 18.0185 50.0799 18.1847 49.8356 18.2926C49.5941 18.4006 49.3214 18.4545 49.0174 18.4545ZM59.6857 10.9205L58.7823 11.1761C58.7255 11.0256 58.6417 10.8793 58.5309 10.7372C58.4229 10.5923 58.2752 10.473 58.0877 10.3793C57.9002 10.2855 57.6602 10.2386 57.3675 10.2386C56.967 10.2386 56.6332 10.331 56.3661 10.5156C56.1019 10.6974 55.9698 10.929 55.9698 11.2102C55.9698 11.4602 56.0607 11.6577 56.2425 11.8026C56.4244 11.9474 56.7085 12.0682 57.0948 12.1648L58.0664 12.4034C58.6516 12.5455 59.0877 12.7628 59.3746 13.0554C59.6616 13.3452 59.805 13.7187 59.805 14.1761C59.805 14.5511 59.6971 14.8864 59.4812 15.1818C59.2681 15.4773 58.9698 15.7102 58.5863 15.8807C58.2028 16.0511 57.7567 16.1364 57.2482 16.1364C56.5806 16.1364 56.0281 15.9915 55.5906 15.7017C55.1531 15.4119 54.8761 14.9886 54.7596 14.4318L55.7141 14.1932C55.805 14.5455 55.9769 14.8097 56.2298 14.9858C56.4854 15.1619 56.8192 15.25 57.2312 15.25C57.6999 15.25 58.0721 15.1506 58.3477 14.9517C58.6261 14.75 58.7653 14.5085 58.7653 14.2273C58.7653 14 58.6857 13.8097 58.5266 13.6562C58.3675 13.5 58.1232 13.3835 57.7937 13.3068L56.7028 13.0511C56.1033 12.9091 55.663 12.6889 55.3817 12.3906C55.1033 12.0895 54.9641 11.7131 54.9641 11.2614C54.9641 10.892 55.0678 10.5653 55.2752 10.2812C55.4854 9.99716 55.771 9.77415 56.1317 9.61222C56.4954 9.45028 56.9073 9.36932 57.3675 9.36932C58.0153 9.36932 58.5238 9.51136 58.8931 9.79545C59.2653 10.0795 59.5295 10.4545 59.6857 10.9205ZM64.1655 9.45455V10.3068H60.7734V9.45455H64.1655ZM61.7621 7.88636H62.7678V14.125C62.7678 14.4091 62.8089 14.6222 62.8913 14.7642C62.9766 14.9034 63.0845 14.9972 63.2152 15.0455C63.3487 15.0909 63.4893 15.1136 63.6371 15.1136C63.7479 15.1136 63.8388 15.108 63.9098 15.0966C63.9808 15.0824 64.0376 15.071 64.0803 15.0625L64.2848 15.9659C64.2166 15.9915 64.1214 16.017 63.9993 16.0426C63.8771 16.071 63.7223 16.0852 63.5348 16.0852C63.2507 16.0852 62.9723 16.0241 62.6996 15.902C62.4297 15.7798 62.2053 15.5938 62.0263 15.3438C61.8501 15.0938 61.7621 14.7784 61.7621 14.3977V7.88636ZM68.3523 16.1364C67.7216 16.1364 67.1776 15.9972 66.7202 15.7188C66.2656 15.4375 65.9148 15.0455 65.6676 14.5426C65.4233 14.0369 65.3011 13.4489 65.3011 12.7784C65.3011 12.108 65.4233 11.517 65.6676 11.0057C65.9148 10.4915 66.2585 10.0909 66.6989 9.80398C67.142 9.5142 67.6591 9.36932 68.25 9.36932C68.5909 9.36932 68.9276 9.42614 69.2599 9.53977C69.5923 9.65341 69.8949 9.83807 70.1676 10.0938C70.4403 10.3466 70.6577 10.6818 70.8196 11.0994C70.9815 11.517 71.0625 12.0312 71.0625 12.642V13.0682H66.017V12.1989H70.0398C70.0398 11.8295 69.9659 11.5 69.8182 11.2102C69.6733 10.9205 69.4659 10.6918 69.196 10.5241C68.929 10.3565 68.6136 10.2727 68.25 10.2727C67.8494 10.2727 67.5028 10.3722 67.2102 10.571C66.9205 10.767 66.6974 11.0227 66.5412 11.3381C66.3849 11.6534 66.3068 11.9915 66.3068 12.3523V12.9318C66.3068 13.4261 66.392 13.8452 66.5625 14.1889C66.7358 14.5298 66.9759 14.7898 67.2827 14.9688C67.5895 15.1449 67.946 15.233 68.3523 15.233C68.6165 15.233 68.8551 15.196 69.0682 15.1222C69.2841 15.0455 69.4702 14.9318 69.6264 14.7812C69.7827 14.6278 69.9034 14.4375 69.9886 14.2102L70.9602 14.483C70.858 14.8125 70.6861 15.1023 70.4446 15.3523C70.2031 15.5994 69.9048 15.7926 69.5497 15.9318C69.1946 16.0682 68.7955 16.1364 68.3523 16.1364ZM72.5923 16V9.45455H73.5639V10.4773H73.6491C73.7855 10.1278 74.0057 9.85653 74.3097 9.66335C74.6136 9.46733 74.9787 9.36932 75.4048 9.36932C75.8366 9.36932 76.196 9.46733 76.483 9.66335C76.7727 9.85653 76.9986 10.1278 77.1605 10.4773H77.2287C77.3963 10.1392 77.6477 9.87074 77.983 9.67188C78.3182 9.47017 78.7202 9.36932 79.1889 9.36932C79.7741 9.36932 80.2528 9.55256 80.625 9.91903C80.9972 10.2827 81.1832 10.8494 81.1832 11.6193V16H80.1776V11.6193C80.1776 11.1364 80.0455 10.7912 79.7812 10.5838C79.517 10.3764 79.206 10.2727 78.848 10.2727C78.3878 10.2727 78.0313 10.4119 77.7784 10.6903C77.5256 10.9659 77.3991 11.3153 77.3991 11.7386V16H76.3764V11.517C76.3764 11.1449 76.2557 10.8452 76.0142 10.6179C75.7727 10.3878 75.4616 10.2727 75.081 10.2727C74.8196 10.2727 74.5753 10.3423 74.348 10.4815C74.1236 10.6207 73.9418 10.8139 73.8026 11.0611C73.6662 11.3054 73.598 11.5881 73.598 11.9091V16H72.5923ZM87.6584 10.9205L86.755 11.1761C86.6982 11.0256 86.6143 10.8793 86.5036 10.7372C86.3956 10.5923 86.2479 10.473 86.0604 10.3793C85.8729 10.2855 85.6328 10.2386 85.3402 10.2386C84.9396 10.2386 84.6058 10.331 84.3388 10.5156C84.0746 10.6974 83.9425 10.929 83.9425 11.2102C83.9425 11.4602 84.0334 11.6577 84.2152 11.8026C84.397 11.9474 84.6811 12.0682 85.0675 12.1648L86.0391 12.4034C86.6243 12.5455 87.0604 12.7628 87.3473 13.0554C87.6342 13.3452 87.7777 13.7187 87.7777 14.1761C87.7777 14.5511 87.6697 14.8864 87.4538 15.1818C87.2408 15.4773 86.9425 15.7102 86.5589 15.8807C86.1754 16.0511 85.7294 16.1364 85.2209 16.1364C84.5533 16.1364 84.0007 15.9915 83.5632 15.7017C83.1257 15.4119 82.8487 14.9886 82.7322 14.4318L83.6868 14.1932C83.7777 14.5455 83.9496 14.8097 84.2024 14.9858C84.4581 15.1619 84.7919 15.25 85.2038 15.25C85.6726 15.25 86.0447 15.1506 86.3203 14.9517C86.5987 14.75 86.7379 14.5085 86.7379 14.2273C86.7379 14 86.6584 13.8097 86.4993 13.6562C86.3402 13.5 86.0959 13.3835 85.7663 13.3068L84.6754 13.0511C84.076 12.9091 83.6357 12.6889 83.3544 12.3906C83.076 12.0895 82.9368 11.7131 82.9368 11.2614C82.9368 10.892 83.0405 10.5653 83.2479 10.2812C83.4581 9.99716 83.7436 9.77415 84.1044 9.61222C84.468 9.45028 84.88 9.36932 85.3402 9.36932C85.9879 9.36932 86.4964 9.51136 86.8658 9.79545C87.2379 10.0795 87.5021 10.4545 87.6584 10.9205ZM95.3256 16.1364C94.7347 16.1364 94.2163 15.9957 93.7702 15.7145C93.3271 15.4332 92.9805 15.0398 92.7305 14.5341C92.4833 14.0284 92.3597 13.4375 92.3597 12.7614C92.3597 12.0795 92.4833 11.4844 92.7305 10.9759C92.9805 10.4673 93.3271 10.0724 93.7702 9.79119C94.2163 9.50994 94.7347 9.36932 95.3256 9.36932C95.9165 9.36932 96.4336 9.50994 96.8768 9.79119C97.3228 10.0724 97.6694 10.4673 97.9165 10.9759C98.1665 11.4844 98.2915 12.0795 98.2915 12.7614C98.2915 13.4375 98.1665 14.0284 97.9165 14.5341C97.6694 15.0398 97.3228 15.4332 96.8768 15.7145C96.4336 15.9957 95.9165 16.1364 95.3256 16.1364ZM95.3256 15.233C95.7745 15.233 96.1438 15.1179 96.4336 14.8878C96.7234 14.6577 96.9379 14.3551 97.0771 13.9801C97.2163 13.6051 97.2859 13.1989 97.2859 12.7614C97.2859 12.3239 97.2163 11.9162 97.0771 11.5384C96.9379 11.1605 96.7234 10.8551 96.4336 10.6222C96.1438 10.3892 95.7745 10.2727 95.3256 10.2727C94.8768 10.2727 94.5075 10.3892 94.2177 10.6222C93.9279 10.8551 93.7134 11.1605 93.5742 11.5384C93.435 11.9162 93.3654 12.3239 93.3654 12.7614C93.3654 13.1989 93.435 13.6051 93.5742 13.9801C93.7134 14.3551 93.9279 14.6577 94.2177 14.8878C94.5075 15.1179 94.8768 15.233 95.3256 15.233ZM99.8267 18.4545V9.45455H100.798V10.4943H100.918C100.991 10.3807 101.094 10.2358 101.224 10.0597C101.358 9.88068 101.548 9.72159 101.795 9.58239C102.045 9.44034 102.384 9.36932 102.81 9.36932C103.361 9.36932 103.847 9.5071 104.267 9.78267C104.688 10.0582 105.016 10.4489 105.251 10.9545C105.487 11.4602 105.605 12.0568 105.605 12.7443C105.605 13.4375 105.487 14.0384 105.251 14.5469C105.016 15.0526 104.689 15.4446 104.271 15.723C103.854 15.9986 103.372 16.1364 102.827 16.1364C102.406 16.1364 102.07 16.0668 101.817 15.9276C101.564 15.7855 101.369 15.625 101.233 15.446C101.097 15.2642 100.991 15.1136 100.918 14.9943H100.832V18.4545H99.8267ZM100.815 12.7273C100.815 13.2216 100.888 13.6577 101.033 14.0355C101.178 14.4105 101.389 14.7045 101.668 14.9176C101.946 15.1278 102.287 15.233 102.69 15.233C103.111 15.233 103.462 15.1222 103.743 14.9006C104.027 14.6761 104.24 14.375 104.382 13.9972C104.527 13.6165 104.599 13.1932 104.599 12.7273C104.599 12.267 104.528 11.8523 104.386 11.483C104.247 11.1108 104.036 10.8168 103.751 10.6009C103.47 10.3821 103.116 10.2727 102.69 10.2727C102.281 10.2727 101.938 10.3764 101.659 10.5838C101.381 10.7884 101.17 11.0753 101.028 11.4446C100.886 11.8111 100.815 12.2386 100.815 12.7273ZM109.884 16.1364C109.253 16.1364 108.709 15.9972 108.251 15.7188C107.797 15.4375 107.446 15.0455 107.199 14.5426C106.955 14.0369 106.832 13.4489 106.832 12.7784C106.832 12.108 106.955 11.517 107.199 11.0057C107.446 10.4915 107.79 10.0909 108.23 9.80398C108.673 9.5142 109.19 9.36932 109.781 9.36932C110.122 9.36932 110.459 9.42614 110.791 9.53977C111.124 9.65341 111.426 9.83807 111.699 10.0938C111.972 10.3466 112.189 10.6818 112.351 11.0994C112.513 11.517 112.594 12.0312 112.594 12.642V13.0682H107.548V12.1989H111.571C111.571 11.8295 111.497 11.5 111.349 11.2102C111.205 10.9205 110.997 10.6918 110.727 10.5241C110.46 10.3565 110.145 10.2727 109.781 10.2727C109.381 10.2727 109.034 10.3722 108.741 10.571C108.452 10.767 108.229 11.0227 108.072 11.3381C107.916 11.6534 107.838 11.9915 107.838 12.3523V12.9318C107.838 13.4261 107.923 13.8452 108.094 14.1889C108.267 14.5298 108.507 14.7898 108.814 14.9688C109.121 15.1449 109.477 15.233 109.884 15.233C110.148 15.233 110.386 15.196 110.599 15.1222C110.815 15.0455 111.001 14.9318 111.158 14.7812C111.314 14.6278 111.435 14.4375 111.52 14.2102L112.491 14.483C112.389 14.8125 112.217 15.1023 111.976 15.3523C111.734 15.5994 111.436 15.7926 111.081 15.9318C110.726 16.0682 110.327 16.1364 109.884 16.1364ZM114.124 16V9.45455H115.095V10.4432H115.163C115.283 10.1193 115.499 9.85653 115.811 9.65483C116.124 9.45312 116.476 9.35227 116.868 9.35227C116.942 9.35227 117.034 9.35369 117.145 9.35653C117.256 9.35937 117.339 9.36364 117.396 9.36932V10.392C117.362 10.3835 117.284 10.3707 117.162 10.3537C117.043 10.3338 116.916 10.3239 116.783 10.3239C116.464 10.3239 116.18 10.3906 115.93 10.5241C115.683 10.6548 115.487 10.8366 115.342 11.0696C115.2 11.2997 115.129 11.5625 115.129 11.858V16H114.124ZM120.515 16.1534C120.1 16.1534 119.723 16.0753 119.385 15.919C119.047 15.7599 118.779 15.5312 118.58 15.233C118.381 14.9318 118.282 14.5682 118.282 14.142C118.282 13.767 118.355 13.4631 118.503 13.2301C118.651 12.9943 118.848 12.8097 119.096 12.6761C119.343 12.5426 119.615 12.4432 119.914 12.3778C120.215 12.3097 120.517 12.2557 120.821 12.2159C121.219 12.1648 121.542 12.1264 121.789 12.1009C122.039 12.0724 122.221 12.0256 122.334 11.9602C122.451 11.8949 122.509 11.7812 122.509 11.6193V11.5852C122.509 11.1648 122.394 10.8381 122.164 10.6051C121.936 10.3722 121.591 10.2557 121.128 10.2557C120.648 10.2557 120.272 10.3608 119.999 10.571C119.726 10.7812 119.534 11.0057 119.424 11.2443L118.469 10.9034C118.64 10.5057 118.867 10.196 119.151 9.97443C119.438 9.75 119.75 9.59375 120.088 9.50568C120.429 9.41477 120.765 9.36932 121.094 9.36932C121.304 9.36932 121.546 9.39489 121.819 9.44602C122.094 9.49432 122.36 9.59517 122.615 9.74858C122.874 9.90199 123.088 10.1335 123.259 10.4432C123.429 10.7528 123.515 11.1676 123.515 11.6875V16H122.509V15.1136H122.458C122.39 15.2557 122.276 15.4077 122.117 15.5696C121.958 15.7315 121.746 15.8693 121.482 15.983C121.218 16.0966 120.895 16.1534 120.515 16.1534ZM120.668 15.25C121.066 15.25 121.401 15.1719 121.674 15.0156C121.949 14.8594 122.157 14.6577 122.296 14.4105C122.438 14.1634 122.509 13.9034 122.509 13.6307V12.7102C122.466 12.7614 122.373 12.8082 122.228 12.8509C122.086 12.8906 121.921 12.9261 121.733 12.9574C121.549 12.9858 121.368 13.0114 121.192 13.0341C121.019 13.054 120.878 13.071 120.77 13.0852C120.509 13.1193 120.265 13.1747 120.037 13.2514C119.813 13.3253 119.631 13.4375 119.492 13.5881C119.355 13.7358 119.287 13.9375 119.287 14.1932C119.287 14.5426 119.417 14.8068 119.675 14.9858C119.936 15.1619 120.267 15.25 120.668 15.25ZM128.197 9.45455V10.3068H124.805V9.45455H128.197ZM125.793 7.88636H126.799V14.125C126.799 14.4091 126.84 14.6222 126.923 14.7642C127.008 14.9034 127.116 14.9972 127.246 15.0455C127.38 15.0909 127.521 15.1136 127.668 15.1136C127.779 15.1136 127.87 15.108 127.941 15.0966C128.012 15.0824 128.069 15.071 128.112 15.0625L128.316 15.9659C128.248 15.9915 128.153 16.017 128.031 16.0426C127.908 16.071 127.754 16.0852 127.566 16.0852C127.282 16.0852 127.004 16.0241 126.731 15.902C126.461 15.7798 126.237 15.5938 126.058 15.3438C125.881 15.0938 125.793 14.7784 125.793 14.3977V7.88636ZM129.71 16V9.45455H130.715V16H129.71ZM130.221 8.36364C130.025 8.36364 129.856 8.29688 129.714 8.16335C129.575 8.02983 129.505 7.86932 129.505 7.68182C129.505 7.49432 129.575 7.33381 129.714 7.20028C129.856 7.06676 130.025 7 130.221 7C130.417 7 130.585 7.06676 130.724 7.20028C130.866 7.33381 130.937 7.49432 130.937 7.68182C130.937 7.86932 130.866 8.02983 130.724 8.16335C130.585 8.29688 130.417 8.36364 130.221 8.36364ZM135.216 16.1364C134.625 16.1364 134.107 15.9957 133.661 15.7145C133.218 15.4332 132.871 15.0398 132.621 14.5341C132.374 14.0284 132.25 13.4375 132.25 12.7614C132.25 12.0795 132.374 11.4844 132.621 10.9759C132.871 10.4673 133.218 10.0724 133.661 9.79119C134.107 9.50994 134.625 9.36932 135.216 9.36932C135.807 9.36932 136.324 9.50994 136.767 9.79119C137.213 10.0724 137.56 10.4673 137.807 10.9759C138.057 11.4844 138.182 12.0795 138.182 12.7614C138.182 13.4375 138.057 14.0284 137.807 14.5341C137.56 15.0398 137.213 15.4332 136.767 15.7145C136.324 15.9957 135.807 16.1364 135.216 16.1364ZM135.216 15.233C135.665 15.233 136.034 15.1179 136.324 14.8878C136.614 14.6577 136.828 14.3551 136.968 13.9801C137.107 13.6051 137.176 13.1989 137.176 12.7614C137.176 12.3239 137.107 11.9162 136.968 11.5384C136.828 11.1605 136.614 10.8551 136.324 10.6222C136.034 10.3892 135.665 10.2727 135.216 10.2727C134.767 10.2727 134.398 10.3892 134.108 10.6222C133.819 10.8551 133.604 11.1605 133.465 11.5384C133.326 11.9162 133.256 12.3239 133.256 12.7614C133.256 13.1989 133.326 13.6051 133.465 13.9801C133.604 14.3551 133.819 14.6577 134.108 14.8878C134.398 15.1179 134.767 15.233 135.216 15.233ZM140.723 12.0625V16H139.717V9.45455H140.689V10.4773H140.774C140.928 10.1449 141.161 9.87784 141.473 9.67614C141.786 9.47159 142.189 9.36932 142.683 9.36932C143.126 9.36932 143.514 9.46023 143.847 9.64205C144.179 9.82102 144.438 10.0938 144.622 10.4602C144.807 10.8239 144.899 11.2841 144.899 11.8409V16H143.893V11.9091C143.893 11.3949 143.76 10.9943 143.493 10.7074C143.226 10.4176 142.859 10.2727 142.393 10.2727C142.072 10.2727 141.786 10.3423 141.533 10.4815C141.283 10.6207 141.085 10.8239 140.94 11.0909C140.795 11.358 140.723 11.6818 140.723 12.0625ZM148.663 16.1534C148.248 16.1534 147.872 16.0753 147.534 15.919C147.196 15.7599 146.927 15.5312 146.728 15.233C146.529 14.9318 146.43 14.5682 146.43 14.142C146.43 13.767 146.504 13.4631 146.652 13.2301C146.799 12.9943 146.997 12.8097 147.244 12.6761C147.491 12.5426 147.764 12.4432 148.062 12.3778C148.363 12.3097 148.666 12.2557 148.97 12.2159C149.368 12.1648 149.69 12.1264 149.937 12.1009C150.187 12.0724 150.369 12.0256 150.483 11.9602C150.599 11.8949 150.657 11.7812 150.657 11.6193V11.5852C150.657 11.1648 150.542 10.8381 150.312 10.6051C150.085 10.3722 149.74 10.2557 149.277 10.2557C148.797 10.2557 148.42 10.3608 148.147 10.571C147.875 10.7812 147.683 11.0057 147.572 11.2443L146.618 10.9034C146.788 10.5057 147.015 10.196 147.299 9.97443C147.586 9.75 147.899 9.59375 148.237 9.50568C148.578 9.41477 148.913 9.36932 149.243 9.36932C149.453 9.36932 149.694 9.39489 149.967 9.44602C150.243 9.49432 150.508 9.59517 150.764 9.74858C151.022 9.90199 151.237 10.1335 151.407 10.4432C151.578 10.7528 151.663 11.1676 151.663 11.6875V16H150.657V15.1136H150.606C150.538 15.2557 150.424 15.4077 150.265 15.5696C150.106 15.7315 149.895 15.8693 149.63 15.983C149.366 16.0966 149.044 16.1534 148.663 16.1534ZM148.816 15.25C149.214 15.25 149.549 15.1719 149.822 15.0156C150.098 14.8594 150.305 14.6577 150.444 14.4105C150.586 14.1634 150.657 13.9034 150.657 13.6307V12.7102C150.615 12.7614 150.521 12.8082 150.376 12.8509C150.234 12.8906 150.069 12.9261 149.882 12.9574C149.697 12.9858 149.517 13.0114 149.341 13.0341C149.167 13.054 149.027 13.071 148.919 13.0852C148.657 13.1193 148.413 13.1747 148.186 13.2514C147.961 13.3253 147.779 13.4375 147.64 13.5881C147.504 13.7358 147.436 13.9375 147.436 14.1932C147.436 14.5426 147.565 14.8068 147.824 14.9858C148.085 15.1619 148.416 15.25 148.816 15.25ZM154.504 7.27273V16H153.499V7.27273H154.504Z" fill="white"/>
</svg>
